<?xml version="1.0" encoding="utf-8"?>
<!-- Generator: Adobe Illustrator 16.0.0, SVG Export Plug-In . SVG Version: 6.00 Build 0)  -->
<!DOCTYPE svg PUBLIC "-//W3C//DTD SVG 1.1//EN" "http://www.w3.org/Graphics/SVG/1.1/DTD/svg11.dtd">
<svg version="1.1"
	 id="SVGRoot" xmlns:inkscape="http://www.inkscape.org/namespaces/inkscape" xmlns:sodipodi="http://sodipodi.sourceforge.net/DTD/sodipodi-0.dtd" xmlns:svg="http://www.w3.org/2000/svg" xmlns:rdf="http://www.w3.org/1999/02/22-rdf-syntax-ns#" xmlns:cc="http://creativecommons.org/ns#" xmlns:dc="http://purl.org/dc/elements/1.1/" sodipodi:docname="git.svg" inkscape:version="0.92.3 (2405546, 2018-03-11)"
	 xmlns="http://www.w3.org/2000/svg" xmlns:xlink="http://www.w3.org/1999/xlink" x="0px" y="0px" width="40px" height="40px"
	 viewBox="0 0 40 40" enable-background="new 0 0 40 40" xml:space="preserve">
<sodipodi:namedview  inkscape:cy="20" inkscape:cx="20" inkscape:zoom="5.9" showgrid="false" id="namedview22" guidetolerance="10" gridtolerance="10" objecttolerance="10" borderopacity="1" bordercolor="#666666" pagecolor="#ffffff" inkscape:window-width="663" inkscape:window-height="480" inkscape:window-maximized="0" inkscape:window-x="55" inkscape:current-layer="SVGRoot" inkscape:pageopacity="0" inkscape:pageshadow="2" inkscape:window-y="312">
	</sodipodi:namedview>
<g>
	<path fill="#FFFFFF" d="M20.149,32.082L20.149,32.082l4.785-14.724h-9.569L20.149,32.082L20.149,32.082z"/>
	<path fill="#FFFFFF" d="M8.659,17.358L8.659,17.358l-1.454,4.475c-0.132,0.407,0.012,0.856,0.359,1.107l12.583,9.143L8.659,17.358
		L8.659,17.358z"/>
	<path fill="#FFFFFF" d="M8.659,17.358h6.706L12.483,8.49c-0.149-0.456-0.794-0.456-0.942,0L8.659,17.358L8.659,17.358z"/>
	<path fill="#FFFFFF" d="M31.639,17.358L31.639,17.358l1.455,4.475c0.131,0.407-0.015,0.856-0.362,1.107l-12.583,9.142
		L31.639,17.358L31.639,17.358z"/>
	<path fill="#FFFFFF" d="M31.639,17.358h-6.705l2.881-8.869c0.148-0.456,0.794-0.456,0.941,0L31.639,17.358L31.639,17.358z"/>
</g>
</svg>
