<?xml version="1.0" encoding="UTF-8" standalone="no"?>
<svg
   xmlns:dc="http://purl.org/dc/elements/1.1/"
   xmlns:cc="http://creativecommons.org/ns#"
   xmlns:rdf="http://www.w3.org/1999/02/22-rdf-syntax-ns#"
   xmlns:svg="http://www.w3.org/2000/svg"
   xmlns="http://www.w3.org/2000/svg"
   xmlns:sodipodi="http://sodipodi.sourceforge.net/DTD/sodipodi-0.dtd"
   xmlns:inkscape="http://www.inkscape.org/namespaces/inkscape"
   id="SVGRoot"
   version="1.1"
   viewBox="0 0 40 40"
   height="40px"
   width="40px"
   sodipodi:docname="lock.svg"
   inkscape:version="0.92.3 (2405546, 2018-03-11)">
  <sodipodi:namedview
     pagecolor="#ffffff"
     bordercolor="#666666"
     borderopacity="1"
     objecttolerance="10"
     gridtolerance="10"
     guidetolerance="10"
     inkscape:pageopacity="0"
     inkscape:pageshadow="2"
     inkscape:window-width="842"
     inkscape:window-height="480"
     id="namedview32"
     showgrid="false"
     inkscape:zoom="5.9"
     inkscape:cx="20"
     inkscape:cy="20"
     inkscape:window-x="55"
     inkscape:window-y="312"
     inkscape:window-maximized="0"
     inkscape:current-layer="SVGRoot" />
  <defs
     id="defs1298" />
  <metadata
     id="metadata1301">
    <rdf:RDF>
      <cc:Work
         rdf:about="">
        <dc:format>image/svg+xml</dc:format>
        <dc:type
           rdf:resource="http://purl.org/dc/dcmitype/StillImage" />
        <dc:title />
      </cc:Work>
    </rdf:RDF>
  </metadata>
  <g
     id="g8470"
     transform="matrix(0.46498537,0,0,-0.46498537,21.418676,24.6349)">
    <path
       inkscape:connector-curvature="0"
       d="m 0,0 v 4.226 c 0,1.025 -0.83,1.855 -1.856,1.855 -1.026,0 -1.856,-0.83 -1.856,-1.855 V 0 c -1.105,-0.643 -1.854,-1.827 -1.854,-3.198 0,-2.047 1.663,-3.71 3.71,-3.71 2.047,0 3.711,1.663 3.711,3.71 C 1.855,-1.827 1.104,-0.643 0,0 m 14.845,-12.475 c 0,-1.024 -0.833,-1.856 -1.856,-1.856 h -29.69 c -1.023,0 -1.856,0.832 -1.856,1.856 V 9.792 c 0,1.024 0.833,1.856 1.856,1.856 h 29.69 c 1.023,0 1.856,-0.832 1.856,-1.856 z M -12.99,26.493 c 0,6.141 4.995,11.134 11.134,11.134 6.139,0 11.134,-4.993 11.134,-11.134 V 15.359 H -12.99 Z M 12.989,15.359 v 11.134 c 0,8.186 -6.659,14.845 -14.845,14.845 -8.185,0 -14.845,-6.659 -14.845,-14.845 V 15.359 c -3.069,0 -5.568,-2.498 -5.568,-5.567 v -22.267 c 0,-3.071 2.499,-5.567 5.568,-5.567 h 29.69 c 3.071,0 5.568,2.496 5.568,5.567 V 9.792 c 0,3.069 -2.497,5.567 -5.568,5.567"
       style="fill:#ffffff;fill-opacity:1;fill-rule:nonzero;stroke:none"
       id="path8472" />
  </g>
</svg>
