<?xml version="1.0" encoding="utf-8"?>
<!-- Generator: Adobe Illustrator 16.0.0, SVG Export Plug-In . SVG Version: 6.00 Build 0)  -->
<!DOCTYPE svg PUBLIC "-//W3C//DTD SVG 1.1//EN" "http://www.w3.org/Graphics/SVG/1.1/DTD/svg11.dtd">
<svg version="1.1"
	 id="SVGRoot" xmlns:inkscape="http://www.inkscape.org/namespaces/inkscape" xmlns:sodipodi="http://sodipodi.sourceforge.net/DTD/sodipodi-0.dtd" xmlns:svg="http://www.w3.org/2000/svg" xmlns:rdf="http://www.w3.org/1999/02/22-rdf-syntax-ns#" xmlns:cc="http://creativecommons.org/ns#" xmlns:dc="http://purl.org/dc/elements/1.1/" sodipodi:docname="git.svg" inkscape:version="0.92.3 (2405546, 2018-03-11)"
	 xmlns="http://www.w3.org/2000/svg" xmlns:xlink="http://www.w3.org/1999/xlink" x="0px" y="0px" width="40px" height="40px"
	 viewBox="0 0 40 40" enable-background="new 0 0 40 40" xml:space="preserve">
<g>
	<rect x="17.978" y="14.24" fill="#FFFFFF" width="3.545" height="3.545"/>
	<rect x="17.978" y="20.165" fill="#FFFFFF" width="3.545" height="3.545"/>
	<path fill="#FFFFFF" d="M7.475,19c0-6.782,5.493-12.275,12.275-12.275c6.773,0,12.274,5.493,12.274,12.275
		c0,6.781-5.501,12.275-12.274,12.275C12.968,31.275,7.475,25.781,7.475,19z M28.257,19c0-4.699-3.808-8.507-8.507-8.507
		c-4.7,0-8.508,3.808-8.508,8.507s3.809,8.507,8.508,8.507C24.449,27.507,28.257,23.699,28.257,19z"/>
</g>
</svg>
