<?xml version="1.0" encoding="utf-8"?>
<!-- Generator: Adobe Illustrator 16.0.0, SVG Export Plug-In . SVG Version: 6.00 Build 0)  -->
<!DOCTYPE svg PUBLIC "-//W3C//DTD SVG 1.1//EN" "http://www.w3.org/Graphics/SVG/1.1/DTD/svg11.dtd">
<svg version="1.1" id="Calque_1" xmlns="http://www.w3.org/2000/svg" xmlns:xlink="http://www.w3.org/1999/xlink" x="0px" y="0px"
	 width="200px" height="70px" viewBox="0 0 200 70" enable-background="new 0 0 200 70" xml:space="preserve">
<g>
	<path fill="#F2E6D4" d="M99.867,33.733h-0.85c0,0-2.677,0.366-5.106,1.156c-1.7,0.543-4.189,1.146-6.194,1.146
		c-0.908,0-1.699,0-2.312-0.188c1.156,4.416,2.854,10.521,3.467,11.183c0.968,1.037,4.979,4.416,5.887,4.663
		c0.79,0.237,3.467,0.296,4.436,0.296h0.978c0.909,0,3.398-0.059,4.248-0.296c0.859-0.247,4.93-3.625,5.898-4.663
		c0.553-0.603,2.005-5.917,3.22-11.054c-0.603,0.177-1.333,0.177-2.183,0.177c-2.005,0-4.563-0.603-6.204-1.146
		C102.604,34.099,99.926,33.733,99.867,33.733z"/>
	
		<path fill-rule="evenodd" clip-rule="evenodd" fill="#DA531C" stroke="#DA531C" stroke-linecap="round" stroke-linejoin="round" stroke-miterlimit="10" d="
		M132.535,62.232c-2.667-1.778-6.252-3.586-10.915-4.801c-0.119-0.06-0.296-0.06-0.484-0.177l-0.119-0.07
		c-0.613-0.296-2.855-1.205-5.285-2.716c-3.715-2.292-3.951-5.374-3.892-6.589c0.06-0.721,1.274-6.164,1.699-8.703
		c0.059-0.118,0.059-0.306,0.128-0.365c0.177,0,0.78-0.059,1.64-0.603c0.296-0.178,0.425-0.662,0.85-1.996
		c0.177-0.721,0.424-1.511,0.661-2.055l0.86-0.483l0.603-9.612c0.188-5.433-0.484-15.173-6.441-19.52
		c-0.178-0.178-4.436-3.685-11.854-3.872l-0.791,0.06c-7.35,0.247-11.597,3.753-11.785,3.872c-6.016,4.416-6.619,14.146-6.44,19.648
		l0.424,9.247l0.909,0.543h-0.059c0,0.059,0.188,0.85,0.73,2.054c0.306,1.265,0.484,1.749,0.731,1.937
		c0.06,0.059,0.119,0.059,0.178,0.118c0.553,1.027,1.274,2.173,2.134,3.26l0.543,1.818c0.306,2.054,0.603,4.168,0.671,4.712
		c0.06,1.215-0.188,4.297-3.892,6.589c-2.193,1.333-4.199,2.242-5.226,2.657c-0.306,0.07-1.581,0.484-1.699,0.484
		c-4.959,1.126-8.545,2.815-11.133,4.564c-0.119,0.335,20.626,6.925,36.105,6.925c12.456,0,26.948-3.863,31.008-5.868
		C133.375,62.795,132.822,62.42,132.535,62.232z M84.309,35.373c0.128,0.474,0.307,1.146,0.494,1.986
		c-0.435-0.84-0.731-1.63-0.978-2.292L84.309,35.373z M104.303,51.692c-0.791,0.237-3.339,0.296-4.248,0.296h-0.978
		c-0.968,0-3.645-0.059-4.436-0.296c-0.85-0.247-4.919-3.625-5.897-4.663c-0.297-0.296-0.85-1.986-1.512-4.109
		c1.937,1.877,4.613,4.376,8.2,4.623c0.306,0.603,0.85,1.028,1.521,1.028h4.979c0.978,0,1.709-0.731,1.709-1.7
		c0-0.968-0.731-1.689-1.709-1.689h-4.979c-0.73,0-1.273,0.425-1.58,1.027c-3.645-0.306-6.628-3.042-8.999-6.184
		c-0.355-1.393-0.781-2.845-1.146-4.179c0.603,0.188,1.393,0.188,2.302,0.188c2.005,0,4.504-0.603,6.204-1.146
		c2.43-0.791,5.107-1.156,5.107-1.156h0.85c0.059,0,2.727,0.366,5.167,1.156c1.699,0.543,4.188,1.146,6.193,1.146
		c0.85,0,1.581,0,2.184-0.188c-1.216,5.147-2.667,10.521-3.22,11.064C109.223,47.998,105.212,51.385,104.303,51.692z"/>
	<g>
		<path fill="#F2E6D4" d="M115.179,35.916c-0.178,0.603-0.366,1.324-0.484,1.512c-0.603,0.355-0.603,0.355-0.85,0.355
			c0.247-1.027,0.425-1.867,0.603-2.411l1.037-0.612C115.426,35.185,115.307,35.55,115.179,35.916z"/>
	</g>
	<g>
		<path fill="#F6F5D3" d="M114.695,9.561c1.521,2.963,2.736,7.497,2.548,14.501l-0.603,9.127l-1.946,1.156V9.561z"/>
	</g>
	<g>
		<path fill="#F6F5D3" d="M84.249,9.679v24.597l-2.064-1.264l-0.366-8.822C81.513,17.236,82.728,12.643,84.249,9.679z"/>
	</g>
	<g>
		<path fill-rule="evenodd" clip-rule="evenodd" fill="#EEB84A" d="M103.759,10.341l-0.613,0.672l2.983,2.479l-2.983,2.47
			l0.613,0.672l3.704-3.142L103.759,10.341z M103.759,18.017l-1.946-2.055l2.914-2.411l-2.914-2.42l1.946-2.054l5.285,4.475
			L103.759,18.017z"/>
	</g>
	<g>
		<polygon fill="#F6F5D3" stroke="#F6F5D3" stroke-linecap="round" stroke-linejoin="round" stroke-miterlimit="10" points="
			103.878,10.341 103.206,11.013 106.189,13.492 103.206,16.021 103.878,16.693 107.523,13.551 		"/>
	</g>
	<g>
		<path fill-rule="evenodd" clip-rule="evenodd" fill="#EEB84A" d="M93.367,13.551l3.043-2.479L95.797,10.4l-3.704,3.151
			l3.704,3.142l0.613-0.672L93.367,13.551z M95.797,18.017l-5.284-4.465l5.284-4.475l1.946,2.054l-2.914,2.42l2.914,2.411
			L95.797,18.017z"/>
	</g>
	<g>
		<polygon fill="#F6F5D3" stroke="#F6F5D3" stroke-linecap="round" stroke-linejoin="round" stroke-miterlimit="10" points="
			91.965,13.551 95.679,16.693 96.282,16.021 93.308,13.492 96.282,11.013 95.679,10.341 		"/>
	</g>
	<g>
		<rect x="87.835" y="27.815" fill="#F6F5D3" width="6.925" height="1.749"/>
	</g>
	<g>
		<path fill-rule="evenodd" clip-rule="evenodd" d="M88.26,30.128h6.016v-2.875H88.26V30.128z M95.126,29.989h-7.774v-2.657h7.774
			V29.989z"/>
	</g>
	<g>
		<rect x="104.184" y="27.815" fill="#F6F5D3" width="6.925" height="1.749"/>
	</g>
	<g>
		<path fill-rule="evenodd" clip-rule="evenodd" d="M104.609,30.128h6.016v-2.875h-6.016V30.128z M111.534,29.989h-7.774v-2.657
			h7.774V29.989z"/>
	</g>
	<g>
		<path fill="#F2E6D4" d="M84.437,35.373L83.4,34.76c0.118,0.365,0.247,0.731,0.306,1.156c0.178,0.603,0.366,1.324,0.484,1.512
			c0.612,0.355,0.612,0.355,0.849,0.355C84.734,36.756,84.556,35.916,84.437,35.373z"/>
	</g>
	<g>
		<polygon fill="#DA531C" points="99.018,38.089 95.254,36.756 95.254,35.373 96.104,35.373 96.104,36.093 99.136,37.24 
			99.808,37.24 102.851,36.093 102.851,35.303 103.759,35.303 103.759,36.696 99.926,38.089 		"/>
	</g>
	<g>
		<polygon fill="#DA531C" points="94.948,44.135 94.582,43.345 97.922,41.655 99.502,42.564 99.63,42.437 101.023,41.655 
			104.421,43.285 103.997,44.075 101.083,42.624 100.114,43.167 99.502,43.592 97.922,42.683 		"/>
	</g>
</g>
</svg>
