<?xml version="1.0" encoding="utf-8"?>
<!-- Generator: Adobe Illustrator 18.0.0, SVG Export Plug-In . SVG Version: 6.00 Build 0)  -->
<!DOCTYPE svg PUBLIC "-//W3C//DTD SVG 1.1//EN" "http://www.w3.org/Graphics/SVG/1.1/DTD/svg11.dtd">
<svg version="1.1" id="Calque_1" xmlns="http://www.w3.org/2000/svg" xmlns:xlink="http://www.w3.org/1999/xlink" x="0px" y="0px"
	 viewBox="148 299.9 298 242" enable-background="new 148 299.9 298 242" xml:space="preserve">
<g>
	<g>
		<path fill="none" d="M340.4,376L340.4,376c24.7,14.9,41.2,41.9,41.2,72.7c0,17.6-5.4,34.4-15.3,48.6c0,0,0,0,0.1,0
			c9.9-14.1,15.3-30.9,15.3-48.6C381.7,417.9,365.1,390.8,340.4,376z"/>
		<path fill="none" d="M249.7,400L249.7,400c-12.8,12.3-20.7,29.6-20.7,48.7c0,16.2,5.7,31.1,15.2,42.8l0,0
			c-9.5-11.7-15.2-26.6-15.2-42.8C229.1,429.6,237,412.4,249.7,400z"/>
		<path fill="none" d="M416.1,448.7c0,24.5-7.4,48.1-21.4,68.1l0,0C408.8,496.8,416.2,473.3,416.1,448.7
			c0.1-65.7-53.4-119.2-119.1-119.2l0,0C362.6,329.5,416.1,383,416.1,448.7z"/>
		<path fill="none" d="M346.8,448.7c0,12.8-4.9,24.5-12.8,33.3l0,0C342,473.2,346.9,461.5,346.8,448.7c0.1-6.8-1.3-13.3-3.8-19.2
			v0.1C345.4,435.5,346.8,442,346.8,448.7z"/>
		<path fill="none" d="M296.9,345.9L296.9,345.9c-56.7,0-102.8,46.1-102.8,102.8c0,20.2,5.8,39.5,16.5,56l0,0
			c-10.7-16.4-16.5-35.7-16.5-55.9C194.2,392.1,240.3,346,296.9,345.9z"/>
		<path fill="#F7F6D4" d="M265.7,468.7c-0.1-1.2-0.9-6.7-1.7-12c-0.5-1.5-0.9-3-1.4-4.6c-2.3-2.8-4.1-5.7-5.4-8.3
			c-0.2-0.1-0.3-0.2-0.5-0.3c-0.7-0.5-1.1-1.6-1.9-5c-1.2-3.1-1.7-5.2-1.8-5.3h0.1l-2.3-1.4l-0.1-1.8c-2.3,5.8-3.6,12.1-3.6,18.7
			c0,12.9,4.9,24.7,13,33.5C265.4,477,265.8,471.2,265.7,468.7z"/>
		<path fill="#F7F6D4" d="M343,429.7l-0.2,2.5l-2.1,1.2c-0.6,1.4-1.2,3.4-1.7,5.2c-0.9,3.4-1.3,4.6-2.1,5.1c-2,1.4-3.6,1.6-4.1,1.6
			c-0.1,0.3-0.2,0.7-0.3,1c-1,6.5-4.2,20.4-4.3,22.2c-0.1,2.6,0.3,8.3,5.6,13.5c8-8.8,12.8-20.5,12.8-33.3
			C346.8,442,345.4,435.5,343,429.7z"/>
		<path fill="#F7F6D4" d="M210.6,504.7c-10.7-16.4-16.5-35.7-16.5-56c0-56.7,46.1-102.8,102.8-102.8l0,0l0,0
			c56.7,0,102.8,46.1,102.8,102.8c0,20.7-6.1,40.5-17.4,57.3c3.1,2.2,5.7,4.3,7.8,6.2c1.8,1.6,3.3,3.2,4.6,4.7
			c14-20,21.4-43.6,21.4-68.1c0-65.7-53.5-119.2-119.2-119.2s-119.2,53.5-119.2,119.2c0,24.1,7.2,47.3,20.7,67.1
			C201,512.4,204.9,508.5,210.6,504.7z"/>
		<path fill="#F7F6D4" d="M249.7,399.9c0.3-7.4,1.3-16.2,4-24.1c-24.9,14.8-41.6,41.9-41.6,72.9c0,17.4,5.3,34.1,14.9,48
			c3.3-1.2,7-2.2,11-3.2c0.4-0.1,3.7-1.1,4.4-1.3c0.5-0.2,1.1-0.4,1.7-0.7c-9.5-11.7-15.2-26.6-15.2-42.8
			C229,429.6,237,412.3,249.7,399.9z"/>
		<path fill="#F7F6D4" d="M340.4,376c2.7,8,3.7,16.8,3.9,24.2c12.6,12.3,20.5,29.5,20.5,48.5c0,16.1-5.7,31-15.1,42.6
			c0.9,0.4,1.6,0.7,2,0.9l0.3,0.1c0.5,0.2,0.9,0.4,1.2,0.5c4.8,1.3,9.1,2.8,13.1,4.5c9.9-14.1,15.3-30.9,15.3-48.6
			C381.7,417.9,365.1,390.9,340.4,376z"/>
		<path fill="#3C82BA" d="M297,311.5c-75.7,0-137.2,61.5-137.2,137.2c0,26.5,7.5,51.9,21.7,74l12.8,0.1c0.6-1.5,1.9-4,4.2-7
			c-13.5-19.8-20.7-43-20.7-67.1c0-65.7,53.5-119.2,119.2-119.2l0,0c65.7,0,119.2,53.5,119.2,119.2c0,24.6-7.4,48.1-21.4,68.1
			c2.3,2.5,3.8,4.6,4.7,6l0,0h13c14.2-22.1,21.7-47.6,21.7-74.1C434.2,373.1,372.6,311.5,297,311.5z"/>
		<path fill="#3C82BA" d="M297,345.9C296.9,345.9,296.9,345.9,297,345.9c-56.7,0-102.8,46.1-102.8,102.8c0,20.2,5.8,39.5,16.5,55.9
			c4.3-2.8,9.7-5.6,16.4-7.9c-9.6-13.9-14.9-30.6-14.9-48c0-31,16.7-58.1,41.6-72.9c2.5-7.1,6.3-13.6,12.3-18
			c0.4-0.3,11.2-9.3,29.9-9.9l2-0.1c18.8,0.6,29.6,9.6,30.1,9.9c6,4.4,9.9,11,12.3,18.2c24.7,14.8,41.3,41.9,41.3,72.7
			c0,17.6-5.4,34.4-15.3,48.6c6.4,2.7,11.6,5.7,15.9,8.7c11.3-16.8,17.4-36.6,17.4-57.3C399.7,392,353.6,345.9,297,345.9z"/>
		<path fill="#3C82BA" d="M260,482.2c-8.1-8.9-13-20.6-13-33.5c0-6.6,1.3-12.9,3.6-18.7l-1-22c-0.1-2.4-0.1-5.1,0-8
			c-12.7,12.3-20.7,29.6-20.7,48.7c0,16.2,5.7,31.1,15.2,42.8c2.8-1.2,7.1-3.3,11.6-6C257.5,484.4,258.9,483.4,260,482.2z"/>
		<path fill="#3C82BA" d="M344.4,400.2c0.1,2.7,0.1,5.3,0,7.5l-1.4,21.8c2.5,5.9,3.8,12.4,3.8,19.2c0,12.8-4.9,24.5-12.8,33.4
			c1.2,1.1,2.6,2.2,4.3,3.3c4.6,2.8,8.9,4.9,11.5,6c9.4-11.7,15.1-26.5,15.1-42.6C364.9,429.7,357,412.5,344.4,400.2z"/>
	</g>
	<g>
		<path fill="#F3E7D5" d="M298.1,432H296c0,0-6.8,0.9-13,3c-4.3,1.4-10.7,2.9-15.8,2.9c-2.3,0-4.4,0-5.9-0.4
			c2.9,11.3,7.3,26.9,8.8,28.5c2.4,2.6,12.7,11.3,15,11.9c2,0.6,8.8,0.7,11.2,0.7h2.5c2.3,0,8.7-0.2,10.8-0.8
			c2.2-0.6,12.5-9.3,15-11.9c1.4-1.5,5.1-15.2,8.2-28.3c-1.5,0.4-3.4,0.4-5.6,0.4c-5.1,0-11.6-1.5-15.8-2.9
			C305,433,298.2,432,298.1,432z"/>
		<path fill="#DB541D" stroke="#DB541D" stroke-miterlimit="10" d="M390.1,511.8c-6.8-6.2-18.6-14.5-36.8-19.3
			c-0.3-0.1-0.7-0.2-1.2-0.5l-0.3-0.1c-1.6-0.7-7.3-3.1-13.5-6.9c-9.4-5.8-10-13.7-9.9-16.8c0.1-1.8,3.3-15.8,4.3-22.2
			c0.1-0.3,0.2-0.7,0.3-1c0.4,0,2-0.2,4.1-1.6c0.8-0.5,1.1-1.7,2.1-5.1c0.5-1.8,1.1-3.8,1.7-5.2l2.1-1.2l1.5-24.5
			c0.4-13.9-1.2-38.8-16.3-49.9c-0.5-0.4-11.3-9.4-30.1-9.9l-2,0.1c-18.7,0.6-29.5,9.6-29.9,9.9c-15.3,11.2-16.8,36.2-16.4,50.2
			l1.1,23.7l2.3,1.4h-0.1c0,0.1,0.5,2.2,1.8,5.3c0.8,3.3,1.2,4.5,1.9,5c0.2,0.1,0.3,0.2,0.5,0.3c1.4,2.7,3.2,5.5,5.4,8.3
			c0.4,1.6,0.9,3.1,1.4,4.6c0.8,5.3,1.6,10.7,1.7,12c0.2,3.1-0.5,11-9.9,16.8c-5.5,3.4-10.7,5.7-13.3,6.8c-0.7,0.2-4,1.2-4.4,1.3
			c-32.5,7.4-41.8,24.3-43.9,29.3l79.6-0.2h46.5l79.1,0.2C398.1,520.3,395.1,516.3,390.1,511.8z M258.5,436.1c0.3,1.3,0.8,3,1.3,5.1
			c-1.1-2.2-1.9-4.2-2.5-5.8L258.5,436.1z M309.4,477.8c-2,0.6-8.5,0.8-10.8,0.8h-2.5c-2.4,0-9.2-0.1-11.2-0.7
			c-2.2-0.6-12.5-9.3-15-11.9c-0.7-0.8-2.2-5.1-3.8-10.5c5,4.8,11.8,8.6,20.8,9.3c0.7,1.5,2.2,2.6,3.9,2.6h12.7
			c2.4,0,4.3-1.9,4.3-4.3c0-2.4-1.9-4.3-4.3-4.3h-12.6c-1.8,0-3.3,1.1-4,2.7c-9.2-0.7-16.9-5.2-22.9-13.3c-1-3.6-2-7.3-2.9-10.6
			c1.6,0.4,3.6,0.4,5.9,0.4c5.1,0,11.5-1.5,15.8-2.9c6.2-2,13-3,13-3h2.1c0.1,0,6.9,0.9,13.1,3c4.3,1.4,10.7,2.9,15.8,2.9
			c2.1,0,4,0,5.6-0.4c-3.1,13.1-6.8,26.9-8.2,28.3C321.9,468.5,311.6,477.1,309.4,477.8z"/>
		<g>
			<path fill="#F3E7D5" d="M337,437.6c-0.4,1.5-0.9,3.4-1.3,3.9c-1.6,1-1.6,0.9-2.1,1c0.6-2.6,1.1-4.8,1.5-6.2l2.7-1.6
				C337.6,435.7,337.3,436.7,337,437.6z"/>
		</g>
		<g>
			<g>
				<path fill="#F7F6D4" d="M335.7,370.2c3.9,7.6,7,19.2,6.5,37.1l-1.5,23.3l-5,2.9V370.2z"/>
			</g>
		</g>
		<g>
			<g>
				<path fill="#F7F6D4" d="M258.4,370.5v62.8l-5.3-3.2l-1-22.5C251.4,389.8,254.5,378.1,258.4,370.5z"/>
			</g>
		</g>
		<g>
			<g>
				<g>
					<path fill="#EFB94B" d="M307.9,391.8l-5-5.3l7.4-6.1l-7.4-6.2l5-5.3l13.4,11.5L307.9,391.8z M308,372.3l-1.6,1.7l7.6,6.4
						l-7.6,6.3l1.6,1.7l9.4-8L308,372.3z"/>
				</g>
			</g>
		</g>
		<g>
			<g>
				<g>
					<polygon fill="#F7F6D4" points="308.2,372.3 306.5,374 314.2,380.3 306.5,386.7 308.2,388.4 317.6,380.4 					"/>
				</g>
			</g>
		</g>
		<g>
			<g>
				<g>
					<path fill="#EFB94B" d="M287.7,391.8l-13.4-11.4l13.4-11.5l5,5.3l-7.4,6.2l7.4,6.1L287.7,391.8z M281.5,380.4l7.7-6.4l-1.6-1.7
						l-9.4,8.1l9.4,8l1.6-1.7L281.5,380.4z"/>
				</g>
			</g>
		</g>
		<g>
			<g>
				<g>
					<polygon fill="#F7F6D4" points="278,380.4 287.4,388.4 289,386.7 281.4,380.3 289,374 287.4,372.3 					"/>
				</g>
			</g>
		</g>
		<g>
			<g>
				<rect x="267.5" y="416.8" fill="#F7F6D4" width="17.6" height="4.5"/>
			</g>
		</g>
		<g>
			<g>
				<path d="M286.1,422.4h-19.8v-6.8h19.8V422.4z M268.6,420.2h15.3v-2.3h-15.3V420.2z"/>
			</g>
		</g>
		<g>
			<g>
				<rect x="309.1" y="416.8" fill="#F7F6D4" width="17.6" height="4.5"/>
			</g>
		</g>
		<g>
			<g>
				<path d="M327.7,422.4h-19.8v-6.8h19.8V422.4z M310.2,420.2h15.3v-2.3h-15.3V420.2z"/>
			</g>
		</g>
		<g>
			<path fill="#F3E7D5" d="M258.8,436.2l-2.7-1.6c0.3,0.9,0.6,1.9,0.8,2.9c0.4,1.5,0.9,3.4,1.3,3.9c1.6,1,1.6,0.9,2.1,1
				C259.7,439.8,259.2,437.6,258.8,436.2z"/>
		</g>
		<g>
			<polygon fill="#DB541D" points="295.9,443.2 286.3,439.7 286.3,436.1 288.5,436.1 288.5,438.1 296.3,440.9 297.9,440.9 
				305.7,438 305.7,436 308,436 308,439.6 298.2,443.1 			"/>
		</g>
		<g>
			<polygon fill="#DB541D" points="285.6,458.5 284.7,456.5 293.2,452.2 297.1,454.5 297.5,454.2 301,452.2 309.6,456.4 
				308.6,458.4 301.1,454.7 298.7,456.1 297.2,457.2 293.1,454.8 			"/>
		</g>
		<g>
			<g>
				<g>
					<path fill="#DB541D" d="M210.7,530.3c-5.6,0-10.2-4.6-10.2-10.1c0-5.6,4.6-10.1,10.2-10.1c5.6,0,10.2,4.5,10.2,10.1
						C220.9,525.7,216.3,530.3,210.7,530.3z M210.7,511.9c-4.5,0-8.2,3.7-8.2,8.2c0,4.5,3.7,8.2,8.2,8.2s8.3-3.7,8.3-8.2
						S215.2,511.9,210.7,511.9z M210.7,526.6c-3.5,0-6.3-2.9-6.3-6.4c0-3.6,2.8-6.4,6.3-6.4c3.6,0,6.4,2.8,6.4,6.4
						C217.1,523.7,214.3,526.6,210.7,526.6z M210.7,515.7c-2.5,0-4.3,2-4.3,4.5s1.9,4.5,4.3,4.5c2.5,0,4.5-2,4.5-4.5
						S213.2,515.7,210.7,515.7z"/>
					<path fill="#DB541D" d="M232.4,530h-5.8v-5.6h5.8c2.5,0,4.4-1.8,4.4-4.2c0-2.5-2-4.2-4.4-4.2h-5.8v-5.5h5.8
						c5.6,0,10.3,4.2,10.3,9.8C242.7,525.7,238,530,232.4,530z M232.4,512.3h-3.8v1.8h3.8c3.5,0,6.4,2.5,6.4,6.1
						c0,3.5-2.8,6.1-6.4,6.1h-3.8v1.8h3.8c4.5,0,8.3-3.4,8.3-7.9C240.7,515.6,236.9,512.3,232.4,512.3z"/>
					<path fill="#DB541D" d="M260.1,530l-4.5-9.7l-4.5,9.7h-6.4l9.5-20.1h2.6l9.6,20.1H260.1z M255.7,512h-0.3l-7.7,16h2.1l5.8-12.5
						l5.7,12.5h2.1L255.7,512z"/>
					<path fill="#DB541D" d="M285.5,530v-19.5h5.8v14h9.8v5.6L285.5,530L285.5,530z M299.1,526.3h-9.8v-14h-1.9v15.8h11.7
						L299.1,526.3L299.1,526.3z"/>
					<path fill="#DB541D" d="M304.6,516v-5.5h15.6v5.5H304.6z M304.6,523v-5.6h15.6v5.6H304.6z M304.6,530v-5.6h15.6v5.6H304.6z
						 M318.2,512.3h-11.7v1.8h11.7V512.3z M318.2,519.3h-11.7v1.8h11.7V519.3z M318.2,526.3h-11.7v1.8h11.7V526.3z"/>
					<path fill="#DB541D" d="M338.5,530l-4.5-9.7l-4.5,9.7h-6.4l9.5-20.1h2.6l9.6,20.1H338.5z M334.1,512h-0.3l-7.7,16h2.1l5.8-12.5
						l5.7,12.5h2.1L334.1,512z"/>
					<path fill="#DB541D" d="M381.6,530.3c-5,0-9.1-3.6-9.1-9.5v-10.4h5.8v10.4c0,2.4,1.3,3.9,3.3,3.9s3.3-1.4,3.3-3.9v-10.4h5.8
						v10.4C390.7,526.7,386.6,530.3,381.6,530.3z M388.8,512.3h-1.9v8.5c0,3.7-2.3,5.8-5.3,5.8s-5.3-2.1-5.3-5.8v-8.5h-1.9v8.5
						c0,4.6,3.2,7.6,7.2,7.6c4,0,7.2-3,7.2-7.6L388.8,512.3L388.8,512.3z"/>
					<path fill="#DB541D" d="M396.9,516v-5.5h15.6v5.5H396.9z M396.9,523v-5.6h15.6v5.6H396.9z M396.9,530v-5.6h15.6v5.6H396.9z
						 M410.5,512.3h-11.7v1.8h11.7V512.3z M410.5,519.3h-11.7v1.8h11.7V519.3z M410.5,526.3h-11.7v1.8h11.7V526.3z"/>
					<path fill="#DB541D" d="M180.9,520.2c0-5.6,4.6-9.8,10.3-9.8h5.8v5.5h-5.8c-2.5,0-4.4,1.7-4.4,4.2c0,2.4,2,4.2,4.4,4.2h5.8v5.6
						h-5.8C185.5,530,180.9,525.7,180.9,520.2z M182.8,520.2c0,4.5,3.8,7.9,8.3,7.9h3.8v-1.8h-3.8c-3.5,0-6.4-2.5-6.4-6.1
						s2.8-6.1,6.4-6.1h3.8v-1.8h-3.8C186.6,512.3,182.8,515.6,182.8,520.2z"/>
				</g>
				<g>
					<rect x="398.9" y="512.4" fill="#F7F6D4" width="11.7" height="1.8"/>
					<rect x="398.9" y="519.4" fill="#F7F6D4" width="11.7" height="1.8"/>
					<rect x="398.9" y="526.4" fill="#F7F6D4" width="11.7" height="1.8"/>
				</g>
				<g>
					<rect x="306.5" y="512.3" fill="#F7F6D4" width="11.7" height="1.8"/>
					<rect x="306.5" y="519.3" fill="#F7F6D4" width="11.7" height="1.8"/>
					<rect x="306.5" y="526.3" fill="#F7F6D4" width="11.7" height="1.8"/>
				</g>
				<path fill="#F7F6D4" d="M182.8,520.2c0,4.5,3.8,7.9,8.3,7.9h3.8v-1.8h-3.8c-3.5,0-6.4-2.5-6.4-6.1s2.8-6.1,6.4-6.1h3.8v-1.8
					h-3.8C186.6,512.3,182.8,515.6,182.8,520.2z"/>
				<path fill="#F7F6D4" d="M232.4,512.3h-3.8v1.8h3.8c3.5,0,6.4,2.5,6.4,6.1c0,3.5-2.8,6.1-6.4,6.1h-3.8v1.8h3.8
					c4.5,0,8.3-3.4,8.3-7.9C240.7,515.6,236.9,512.3,232.4,512.3z"/>
				<path fill="#F7F6D4" d="M210.7,511.9c-4.5,0-8.2,3.7-8.2,8.2c0,4.5,3.7,8.2,8.2,8.2s8.3-3.7,8.3-8.2S215.2,511.9,210.7,511.9z
					 M210.7,526.6c-3.5,0-6.3-2.9-6.3-6.4c0-3.6,2.8-6.4,6.3-6.4c3.6,0,6.4,2.8,6.4,6.4C217.1,523.7,214.3,526.6,210.7,526.6z"/>
				<polygon fill="#F7F6D4" points="255.7,511.9 255.4,511.9 247.7,528 249.8,528 255.6,515.5 261.3,528 263.4,528 				"/>
				<polygon fill="#F7F6D4" points="334.1,511.9 333.8,511.9 326.1,528 328.2,528 334,515.5 339.7,528 341.8,528 				"/>
				<polygon fill="#F7F6D4" points="299.1,526.5 289.3,526.5 289.3,512.5 287.4,512.5 287.4,528.3 299.1,528.3 				"/>
				<path fill="#F7F6D4" d="M388.8,512.3h-1.9v8.5c0,3.7-2.3,5.8-5.3,5.8s-5.3-2.1-5.3-5.8v-8.5h-1.9v8.5c0,4.6,3.2,7.6,7.2,7.6
					c4,0,7.2-3,7.2-7.6L388.8,512.3L388.8,512.3z"/>
			</g>
		</g>
		<g>
			<path fill="#DB541D" d="M355,516.8v5.4h5.5c0,0-0.8,1.8-2.8,2c-1.8,0.2-3-0.6-3.9-1.3c-0.7-0.6-1.3-1.6-1.3-3.6
				c0-1.8,1.1-2.8,1.1-2.8c1.2-1.1,2.4-1.6,5.5-1.6v-5.7c-7.6,0-12.2,4.6-12.2,10.2c0,5.6,4.6,10.2,10.3,10.2c2.2,0,4.3-0.7,6.1-2v2
				h5.8v-13.1h-2L355,516.8z M365.2,527.9v-5.8l0,0l0,0c0,0-0.1,0.1-0.1,0.2l-0.8,1.3c-0.4,0.6-0.8,1.3-1.1,1.7
				c-1.2,1.8-3.7,2.5-6,2.5c-4.6,0-8.3-3.8-8.3-8.3c0-4.4,3.4-7.9,8.2-8.3v1.9c-3.2,0.3-6.2,2.2-6.4,5.5c0,0.5,0,1.1,0.2,2.1
				c0.7,4,3.6,5.4,6.3,5.4c2.8,0,5.2-1.8,6.5-5.6h-4.6h-2v-1.9h10v9.2L365.2,527.9z"/>
			<path fill="#F7F6D4" d="M365.2,527.9v-5.8l0,0l0,0c0,0-0.1,0.1-0.1,0.2l-0.8,1.3c-0.4,0.6-0.8,1.3-1.1,1.7
				c-1.2,1.8-3.7,2.5-6,2.5c-4.6,0-8.3-3.8-8.3-8.3c0-4.4,3.4-7.9,8.2-8.3v1.9c-3.2,0.3-6.2,2.2-6.4,5.5c0,0.5,0,1.1,0.2,2.1
				c0.7,4,3.6,5.4,6.3,5.4c2.8,0,5.2-1.8,6.5-5.6h-4.6h-2v-1.9h10v9.2L365.2,527.9z"/>
		</g>
	</g>
</g>
</svg>
