<?xml version="1.0" encoding="utf-8"?>
<!-- Generator: Adobe Illustrator 18.0.0, SVG Export Plug-In . SVG Version: 6.00 Build 0)  -->
<!DOCTYPE svg PUBLIC "-//W3C//DTD SVG 1.1//EN" "http://www.w3.org/Graphics/SVG/1.1/DTD/svg11.dtd">
<svg version="1.1" id="Calque_1" xmlns="http://www.w3.org/2000/svg" xmlns:xlink="http://www.w3.org/1999/xlink" x="0px" y="0px"
	 viewBox="206.5 322.9 188 153" enable-background="new 206.5 322.9 188 153" xml:space="preserve">
<g>
	<g>
		<path fill="none" d="M328.6,370.3L328.6,370.3c16,9.7,26.7,27.1,26.7,47.1c0,11.4-3.5,22.3-9.9,31.5c0,0,0,0,0.1,0
			c6.4-9.1,9.9-20,9.9-31.5C355.4,397.4,344.6,379.9,328.6,370.3z"/>
		<path fill="none" d="M269.9,385.8L269.9,385.8c-8.3,8-13.4,19.2-13.4,31.5c0,10.5,3.7,20.1,9.8,27.7l0,0
			c-6.2-7.6-9.8-17.2-9.8-27.7C256.5,405,261.6,393.9,269.9,385.8z"/>
		<path fill="none" d="M377.6,417.4c0,15.9-4.8,31.2-13.9,44.1l0,0C372.9,448.5,377.7,433.3,377.6,417.4
			c0.1-42.6-34.6-77.2-77.1-77.2l0,0C343,340.2,377.6,374.8,377.6,417.4z"/>
		<path fill="none" d="M332.8,417.4c0,8.3-3.2,15.9-8.3,21.6l0,0C329.6,433.2,332.8,425.7,332.8,417.4c0.1-4.4-0.8-8.6-2.5-12.4v0.1
			C331.8,408.8,332.8,413,332.8,417.4z"/>
		<path fill="none" d="M300.4,350.8L300.4,350.8c-36.7,0-66.6,29.9-66.6,66.6c0,13.1,3.8,25.6,10.7,36.3l0,0
			c-6.9-10.6-10.7-23.1-10.7-36.2C233.9,380.7,263.8,350.9,300.4,350.8z"/>
		<path fill="#F7F6D4" d="M280.2,430.3c-0.1-0.8-0.6-4.3-1.1-7.8c-0.3-1-0.6-1.9-0.9-3c-1.5-1.8-2.7-3.7-3.5-5.4
			c-0.1-0.1-0.2-0.1-0.3-0.2c-0.5-0.3-0.7-1-1.2-3.2c-0.8-2-1.1-3.4-1.2-3.4h0.1l-1.5-0.9l-0.1-1.2c-1.5,3.8-2.3,7.8-2.3,12.1
			c0,8.4,3.2,16,8.4,21.7C280,435.7,280.3,432,280.2,430.3z"/>
		<path fill="#F7F6D4" d="M330.3,405.1l-0.1,1.6l-1.4,0.8c-0.4,0.9-0.8,2.2-1.1,3.4c-0.6,2.2-0.8,3-1.4,3.3c-1.3,0.9-2.3,1-2.7,1
			c-0.1,0.2-0.1,0.5-0.2,0.6c-0.6,4.2-2.7,13.2-2.8,14.4c-0.1,1.7,0.2,5.4,3.6,8.7c5.2-5.7,8.3-13.3,8.3-21.6
			C332.8,413,331.8,408.8,330.3,405.1z"/>
		<path fill="#F7F6D4" d="M244.5,453.6c-6.9-10.6-10.7-23.1-10.7-36.3c0-36.7,29.9-66.6,66.6-66.6l0,0l0,0
			c36.7,0,66.6,29.9,66.6,66.6c0,13.4-4,26.2-11.3,37.1c2,1.4,3.7,2.8,5.1,4c1.2,1,2.1,2.1,3,3c9.1-13,13.9-28.2,13.9-44.1
			c0-42.6-34.7-77.2-77.2-77.2s-77.2,34.7-77.2,77.2c0,15.6,4.7,30.6,13.4,43.5C238.3,458.6,240.8,456.1,244.5,453.6z"/>
		<path fill="#F7F6D4" d="M269.9,385.8c0.2-4.8,0.8-10.5,2.6-15.6c-16.1,9.6-26.9,27.1-26.9,47.2c0,11.3,3.4,22.1,9.7,31.1
			c2.1-0.8,4.5-1.4,7.1-2.1c0.3-0.1,2.4-0.7,2.8-0.8c0.3-0.1,0.7-0.3,1.1-0.5c-6.2-7.6-9.8-17.2-9.8-27.7
			C256.5,405,261.6,393.8,269.9,385.8z"/>
		<path fill="#F7F6D4" d="M328.6,370.3c1.7,5.2,2.4,10.9,2.5,15.7c8.2,8,13.3,19.1,13.3,31.4c0,10.4-3.7,20.1-9.8,27.6
			c0.6,0.3,1,0.5,1.3,0.6l0.2,0.1c0.3,0.1,0.6,0.3,0.8,0.3c3.1,0.8,5.9,1.8,8.5,2.9c6.4-9.1,9.9-20,9.9-31.5
			C355.4,397.4,344.6,379.9,328.6,370.3z"/>
		<path fill="#3C82BA" d="M300.5,328.5c-49,0-88.9,39.8-88.9,88.9c0,17.2,4.9,33.6,14.1,47.9l8.3,0.1c0.4-1,1.2-2.6,2.7-4.5
			c-8.7-12.8-13.4-27.8-13.4-43.5c0-42.6,34.7-77.2,77.2-77.2l0,0c42.6,0,77.2,34.7,77.2,77.2c0,15.9-4.8,31.2-13.9,44.1
			c1.5,1.6,2.5,3,3,3.9l0,0h8.4c9.2-14.3,14.1-30.8,14.1-48C389.4,368.4,349.5,328.5,300.5,328.5z"/>
		<path fill="#3C82BA" d="M300.5,350.8C300.4,350.8,300.4,350.8,300.5,350.8c-36.7,0-66.6,29.9-66.6,66.6c0,13.1,3.8,25.6,10.7,36.2
			c2.8-1.8,6.3-3.6,10.6-5.1c-6.2-9-9.7-19.8-9.7-31.1c0-20.1,10.8-37.6,26.9-47.2c1.6-4.6,4.1-8.8,8-11.7c0.3-0.2,7.3-6,19.4-6.4
			l1.3-0.1c12.2,0.4,19.2,6.2,19.5,6.4c3.9,2.8,6.4,7.1,8,11.8c16,9.6,26.7,27.1,26.7,47.1c0,11.4-3.5,22.3-9.9,31.5
			c4.1,1.7,7.5,3.7,10.3,5.6c7.3-10.9,11.3-23.7,11.3-37.1C367,380.7,337.2,350.8,300.5,350.8z"/>
		<path fill="#3C82BA" d="M276.5,439.1c-5.2-5.8-8.4-13.3-8.4-21.7c0-4.3,0.8-8.4,2.3-12.1l-0.6-14.2c-0.1-1.6-0.1-3.3,0-5.2
			c-8.2,8-13.4,19.2-13.4,31.5c0,10.5,3.7,20.1,9.8,27.7c1.8-0.8,4.6-2.1,7.5-3.9C274.9,440.5,275.8,439.9,276.5,439.1z"/>
		<path fill="#3C82BA" d="M331.2,386c0.1,1.7,0.1,3.4,0,4.9l-0.9,14.1c1.6,3.8,2.5,8,2.5,12.4c0,8.3-3.2,15.9-8.3,21.6
			c0.8,0.7,1.7,1.4,2.8,2.1c3,1.8,5.8,3.2,7.4,3.9c6.1-7.6,9.8-17.2,9.8-27.6C344.5,405.1,339.4,393.9,331.2,386z"/>
	</g>
	<g>
		<path fill="#F3E7D5" d="M301.2,406.6h-1.4c0,0-4.4,0.6-8.4,1.9c-2.8,0.9-6.9,1.9-10.2,1.9c-1.5,0-2.8,0-3.8-0.3
			c1.9,7.3,4.7,17.4,5.7,18.5c1.6,1.7,8.2,7.3,9.7,7.7c1.3,0.4,5.7,0.5,7.3,0.5h1.6c1.5,0,5.6-0.1,7-0.5c1.4-0.4,8.1-6,9.7-7.7
			c0.9-1,3.3-9.8,5.3-18.3c-1,0.3-2.2,0.3-3.6,0.3c-3.3,0-7.5-1-10.2-1.9C305.7,407.2,301.3,406.6,301.2,406.6z"/>
		<path fill="#DB541D" stroke="#DB541D" stroke-miterlimit="10" d="M360.8,458.3c-4.4-4-12-9.4-23.8-12.5c-0.2-0.1-0.5-0.1-0.8-0.3
			l-0.2-0.1c-1-0.5-4.7-2-8.7-4.5c-6.1-3.8-6.5-8.9-6.4-10.9c0.1-1.2,2.1-10.2,2.8-14.4c0.1-0.2,0.1-0.5,0.2-0.6
			c0.3,0,1.3-0.1,2.7-1c0.5-0.3,0.7-1.1,1.4-3.3c0.3-1.2,0.7-2.5,1.1-3.4l1.4-0.8l1-15.9c0.3-9-0.8-25.1-10.6-32.3
			c-0.3-0.3-7.3-6.1-19.5-6.4l-1.3,0.1c-12.1,0.4-19.1,6.2-19.4,6.4c-9.9,7.3-10.9,23.4-10.6,32.5l0.7,15.3l1.5,0.9h-0.1
			c0,0.1,0.3,1.4,1.2,3.4c0.5,2.1,0.8,2.9,1.2,3.2c0.1,0.1,0.2,0.1,0.3,0.2c0.9,1.7,2.1,3.6,3.5,5.4c0.3,1,0.6,2,0.9,3
			c0.5,3.4,1,6.9,1.1,7.8c0.1,2-0.3,7.1-6.4,10.9c-3.6,2.2-6.9,3.7-8.6,4.4c-0.5,0.1-2.6,0.8-2.8,0.8c-21,4.8-27.1,15.7-28.4,19
			l51.6-0.1h30.1l51.2,0.1C366,463.8,364,461.2,360.8,458.3z M275.6,409.3c0.2,0.8,0.5,1.9,0.8,3.3c-0.7-1.4-1.2-2.7-1.6-3.8
			L275.6,409.3z M308.5,436.3c-1.3,0.4-5.5,0.5-7,0.5h-1.6c-1.6,0-6-0.1-7.3-0.5c-1.4-0.4-8.1-6-9.7-7.7c-0.5-0.5-1.4-3.3-2.5-6.8
			c3.2,3.1,7.6,5.6,13.5,6c0.5,1,1.4,1.7,2.5,1.7h8.2c1.6,0,2.8-1.2,2.8-2.8s-1.2-2.8-2.8-2.8h-8.2c-1.2,0-2.1,0.7-2.6,1.7
			c-6-0.5-10.9-3.4-14.8-8.6c-0.6-2.3-1.3-4.7-1.9-6.9c1,0.3,2.3,0.3,3.8,0.3c3.3,0,7.4-1,10.2-1.9c4-1.3,8.4-1.9,8.4-1.9h1.4
			c0.1,0,4.5,0.6,8.5,1.9c2.8,0.9,6.9,1.9,10.2,1.9c1.4,0,2.6,0,3.6-0.3c-2,8.5-4.4,17.4-5.3,18.3
			C316.6,430.2,310,435.8,308.5,436.3z"/>
		<g>
			<path fill="#F3E7D5" d="M326.4,410.2c-0.3,1-0.6,2.2-0.8,2.5c-1,0.6-1,0.6-1.4,0.6c0.4-1.7,0.7-3.1,1-4l1.7-1
				C326.8,409,326.6,409.6,326.4,410.2z"/>
		</g>
		<g>
			<g>
				<path fill="#F7F6D4" d="M325.6,366.6c2.5,4.9,4.5,12.4,4.2,24l-1,15.1l-3.2,1.9V366.6z"/>
			</g>
		</g>
		<g>
			<g>
				<path fill="#F7F6D4" d="M275.5,366.8v40.7l-3.4-2.1l-0.6-14.6C271,379.3,273,371.7,275.5,366.8z"/>
			</g>
		</g>
		<g>
			<g>
				<g>
					<path fill="#EFB94B" d="M307.6,380.6l-3.2-3.4l4.8-4l-4.8-4l3.2-3.4l8.7,7.4L307.6,380.6z M307.6,367.9l-1,1.1l4.9,4.1
						l-4.9,4.1l1,1.1l6.1-5.2L307.6,367.9z"/>
				</g>
			</g>
		</g>
		<g>
			<g>
				<g>
					<polygon fill="#F7F6D4" points="307.8,367.9 306.7,369 311.6,373.1 306.7,377.3 307.8,378.4 313.8,373.2 					"/>
				</g>
			</g>
		</g>
		<g>
			<g>
				<g>
					<path fill="#EFB94B" d="M294.5,380.6l-8.7-7.4l8.7-7.4l3.2,3.4l-4.8,4l4.8,4L294.5,380.6z M290.5,373.2l5-4.1l-1-1.1l-6.1,5.2
						l6.1,5.2l1-1.1L290.5,373.2z"/>
				</g>
			</g>
		</g>
		<g>
			<g>
				<g>
					<polygon fill="#F7F6D4" points="288.2,373.2 294.3,378.4 295.3,377.3 290.4,373.1 295.3,369 294.3,367.9 					"/>
				</g>
			</g>
		</g>
		<g>
			<g>
				<rect x="281.4" y="396.8" fill="#F7F6D4" width="11.4" height="2.9"/>
			</g>
		</g>
		<g>
			<g>
				<path d="M293.4,400.4h-12.8V396h12.8V400.4z M282.1,399h9.9v-1.5h-9.9V399z"/>
			</g>
		</g>
		<g>
			<g>
				<rect x="308.3" y="396.8" fill="#F7F6D4" width="11.4" height="2.9"/>
			</g>
		</g>
		<g>
			<g>
				<path d="M320.4,400.4h-12.8V396h12.8V400.4z M309,399h9.9v-1.5H309V399z"/>
			</g>
		</g>
		<g>
			<path fill="#F3E7D5" d="M275.8,409.3l-1.7-1c0.2,0.6,0.4,1.2,0.5,1.9c0.3,1,0.6,2.2,0.8,2.5c1,0.6,1,0.6,1.4,0.6
				C276.3,411.6,276,410.2,275.8,409.3z"/>
		</g>
		<g>
			<polygon fill="#DB541D" points="299.8,413.8 293.6,411.6 293.6,409.3 295,409.3 295,410.5 300,412.4 301.1,412.4 306.1,410.5 
				306.1,409.2 307.6,409.2 307.6,411.5 301.3,413.8 			"/>
		</g>
		<g>
			<polygon fill="#DB541D" points="293.1,423.8 292.5,422.5 298,419.7 300.6,421.2 300.8,421 303.1,419.7 308.7,422.4 308,423.7 
				303.2,421.3 301.6,422.2 300.6,422.9 298,421.4 			"/>
		</g>
	</g>
</g>
</svg>
