<?xml version="1.0" encoding="utf-8"?>
<!-- Generator: Adobe Illustrator 16.0.0, SVG Export Plug-In . SVG Version: 6.00 Build 0)  -->
<!DOCTYPE svg PUBLIC "-//W3C//DTD SVG 1.1//EN" "http://www.w3.org/Graphics/SVG/1.1/DTD/svg11.dtd">
<svg version="1.1" id="Calque_1" xmlns="http://www.w3.org/2000/svg" xmlns:xlink="http://www.w3.org/1999/xlink" x="0px" y="0px"
	 width="578.469px" height="465px" viewBox="0 0 578.469 465" enable-background="new 0 0 578.469 465" xml:space="preserve">
<g>
	<path fill="none" d="M380.869,136.07c52.09,31.58,86.92,88.22,86.92,153.33c0,37.11-11.39,72.591-32.229,102.54h0.33
		c20.83-29.62,32.22-65.109,32.22-102.54C468.109,224.29,432.958,167.32,380.869,136.07z"/>
	<path fill="none" d="M189.779,186.53c-27.01,26.04-43.62,62.5-43.62,102.54c0,34.181,12.05,65.431,31.91,90.181
		c-20.19-24.75-31.91-56-31.91-90.181C146.159,249.03,162.769,212.9,189.779,186.53z"/>
	<path fill="none" d="M540.378,289.4c0,51.761-15.619,101.56-45.25,143.56C525.08,390.64,540.708,341.161,540.378,289.4
		c0.33-138.68-112.629-251.31-250.979-251.31C427.75,38.09,540.378,150.72,540.378,289.4z"/>
	<path fill="none" d="M394.539,289.4c0,27.021-10.41,51.761-27.01,70.31C384.128,340.831,394.539,316.42,394.539,289.4
		c0.33-14.33-2.6-28-8.129-40.37v0.33C391.289,261.4,394.539,275.07,394.539,289.4z"/>
	<path fill="none" d="M289.069,72.59c-119.47,0-216.8,97.34-216.8,216.81c0,42.64,12.37,83.33,34.83,118.17
		c-22.46-34.51-34.83-75.2-34.83-117.85C72.589,169.93,169.929,72.92,289.069,72.59z"/>
	<path fill="#F5F4D2" d="M223.309,331.39c-0.319-2.601-1.95-14-3.58-25.39c-0.97-3.25-1.95-6.181-2.931-9.771
		c-4.879-5.86-8.779-12.04-11.389-17.569c-0.32-0.33-0.65-0.33-0.98-0.66c-1.62-0.971-2.27-3.25-3.9-10.41
		c-2.609-6.51-3.58-11.07-3.91-11.07h0.33l-4.89-2.93l-0.319-3.91c-4.891,12.369-7.49,25.39-7.49,39.39
		c0,27.351,10.42,52.091,27.35,70.64C222.66,348.97,223.639,336.93,223.309,331.39z"/>
	<path fill="#F5F4D2" d="M386.41,249.36l-0.33,5.21l-4.561,2.601c-1.3,2.93-2.6,7.16-3.58,11.07c-1.949,7.159-2.6,9.76-4.55,10.739
		c-4.24,2.931-7.49,3.261-8.79,3.261c-0.33,0.649-0.33,1.619-0.66,1.949c-1.949,13.67-8.779,42.971-9.109,46.88
		c-0.33,5.53,0.649,17.57,11.719,28.32c16.931-18.56,27.021-43.3,27.021-70.32C394.539,275.07,391.289,261.4,386.41,249.36z"/>
	<path fill="#F5F4D2" d="M107.099,407.241c-22.46-34.511-34.83-75.201-34.83-118.171c0-119.47,97.33-216.8,216.8-216.8
		s216.81,97.33,216.81,216.8c0,43.62-13.029,85.29-36.789,120.771c6.51,4.56,12.05,9.119,16.6,13.029c3.91,3.25,6.84,6.83,9.77,9.76
		c29.621-42.319,45.25-91.799,45.25-143.56c0-138.67-112.959-251.31-251.31-251.31c-138.35,0-251.31,112.96-251.31,251.31
		c0,50.79,15.3,99.62,43.62,141.61C86.919,423.52,95.059,415.379,107.099,407.241z"/>
	<path fill="#F5F4D2" d="M189.779,186.53c0.66-15.63,2.61-34.18,8.471-50.78c-52.411,31.25-87.57,88.22-87.57,153.65
		c0,36.78,11.07,71.94,31.58,101.24c6.83-2.61,14.65-4.56,23.11-6.841c0.98-0.319,7.811-2.279,9.11-2.6
		c0.979-0.33,2.28-0.979,3.59-1.63c-20.19-24.739-31.91-55.989-31.91-90.17C146.159,249.03,162.769,212.57,189.779,186.53z"/>
	<path fill="#F5F4D2" d="M380.869,136.07c5.541,16.93,7.82,35.49,8.141,51.11c26.689,26.04,43.3,62.18,43.3,102.22
		c0,33.851-12.05,65.431-31.91,89.851c1.96,0.97,3.261,1.619,4.24,1.949l0.649,0.32c0.971,0.33,1.951,0.98,2.601,0.98
		c10.09,2.6,19.21,5.859,27.67,9.439c20.84-29.62,32.229-65.109,32.229-102.54C468.109,224.29,432.958,167.32,380.869,136.07z"/>
	<path fill="#3A80B8" d="M289.399,0c-159.51,0-289.4,129.56-289.4,289.4c0,55.99,15.95,109.38,45.9,155.931l27.02,0.319
		c1.3-3.25,3.91-8.46,8.79-14.649c-28.32-41.66-43.62-90.49-43.62-141.601c0-138.68,112.959-251.31,251.31-251.31
		c138.67,0,251.31,112.96,251.31,251.31c0,51.761-15.629,101.56-45.25,143.56c4.881,5.211,8.141,9.761,9.771,12.69h27.34
		c29.95-46.55,45.899-100.26,45.899-156.25C578.798,129.89,448.91,0,289.399,0z"/>
	<path fill="#3A80B8" d="M289.399,72.59h-0.25H289.399c-119.47,0-216.81,97.34-216.81,216.81c0,42.64,12.37,83.33,34.84,117.841
		c9.11-5.861,20.5-11.721,34.5-16.601c-20.18-29.3-31.58-64.46-31.58-101.24c0-65.43,35.16-122.4,87.57-153.65
		c5.209-14.98,13.35-28.65,26.05-38.09c0.97-0.65,23.76-19.53,63.149-20.83l4.23-0.33c39.72,1.3,62.5,20.18,63.48,20.83
		c12.699,9.12,20.83,23.12,26.039,38.42c52.09,31.25,86.92,88.22,86.92,153.32c0,37.11-11.39,72.601-32.229,102.55
		c13.351,5.53,24.42,12.041,33.53,18.221c23.76-35.48,36.789-77.15,36.789-120.771C505.878,169.93,408.869,72.59,289.399,72.59z"/>
	<path fill="#3A80B8" d="M211.269,360.04c-16.93-18.879-27.34-43.299-27.34-70.64c0-14,2.6-27.351,7.48-39.39l-1.951-46.23
		c-0.33-5.21-0.33-10.74,0-16.92c-26.689,26.04-43.62,62.5-43.62,102.54c0,34.181,12.04,65.431,31.901,90.17
		c5.859-2.6,14.979-6.84,24.42-12.7C206.059,364.6,208.99,362.64,211.269,360.04z"/>
	<path fill="#3A80B8" d="M389.339,187.18c0.32,5.53,0.32,11.07,0,15.95l-2.93,45.9c5.199,12.37,8.129,26.04,8.129,40.37
		c0,27.021-10.41,51.761-27.01,70.31c2.6,2.281,5.53,4.561,9.11,6.84c9.771,5.861,18.88,10.421,24.09,12.701
		c19.86-24.75,31.899-56,31.899-89.851C432.628,249.36,416.029,212.9,389.339,187.18z"/>
</g>
<path fill-rule="evenodd" clip-rule="evenodd" fill="none" stroke="#000000" stroke-width="26" stroke-linecap="round" stroke-linejoin="round" stroke-miterlimit="10" d="
	M492.839,430.84c-3.26-3.69-2.28-2.891-7.15-7.301c-14.32-13.02-39.061-30.6-77.47-40.689c-0.65-0.33-1.63-0.33-2.61-0.98
	l-0.65-0.32c-3.25-1.629-15.299-6.51-28.319-14.649c-19.86-12.37-21.16-28.97-20.83-35.479c0.319-3.91,6.83-33.211,9.11-46.881
	c0.33-0.649,0.33-1.629,0.649-1.959c0.979,0,4.229-0.32,8.79-3.25c1.631-0.98,2.28-3.58,4.561-10.74
	c0.979-3.91,2.279-8.141,3.58-11.07l4.56-2.6l3.25-51.76c0.979-29.3-2.601-81.71-34.5-105.15c-0.979-0.98-23.771-19.86-63.479-20.84
	l-4.23,0.33c-39.391,1.3-62.18,20.18-63.16,20.83c-32.22,23.77-35.48,76.18-34.5,105.8l2.28,49.81l4.88,2.93h-0.33
	c0,0.32,0.98,4.561,3.91,11.07c1.63,6.83,2.6,9.439,3.91,10.41c0.32,0.33,0.65,0.33,0.97,0.65c2.931,5.539,6.84,11.72,11.399,17.58
	l2.931,9.77c1.62,11.07,3.25,22.46,3.58,25.391c0.319,6.51-0.979,23.109-20.841,35.479c-11.719,7.17-22.459,12.05-27.989,14.329
	c-1.63,0.32-8.47,2.601-9.12,2.601c-43.27,9.89-65.11,25.74-77.85,40.229"/>
<g>
	<g>
		<path fill="#F1E5D3" d="M291.679,254.241h-4.561c0,0-14.32,1.949-27.35,6.189c-9.109,2.93-22.46,6.18-33.2,6.18
			c-4.88,0-9.11,0-12.37-0.98c6.19,23.771,15.301,56.65,18.561,60.23c5.199,5.53,26.689,23.76,31.57,25.061
			c4.229,1.31,18.56,1.629,23.77,1.629h5.199c4.891,0,18.23-0.319,22.791-1.629c4.56-1.301,26.369-19.53,31.58-25.061
			c2.93-3.26,10.74-31.9,17.25-59.57c-3.25,0.971-7.16,0.971-11.721,0.971c-10.74,0-24.41-3.25-33.199-6.18
			C306.33,256.19,292,254.241,291.679,254.241z"/>
		<g>
			
				<path fill-rule="evenodd" clip-rule="evenodd" fill="#D9521B" stroke="#D9521B" stroke-linecap="round" stroke-linejoin="round" stroke-miterlimit="10" d="
				M485.689,422.54c-14.32-13.02-39.061-30.6-77.47-40.689c-0.65-0.33-1.63-0.33-2.61-0.98l-0.65-0.32
				c-3.25-1.629-15.299-6.51-28.319-14.649c-19.86-12.37-21.16-28.97-20.83-35.479c0.319-3.91,6.83-33.211,9.11-46.881
				c0.33-0.649,0.33-1.629,0.649-1.959c0.979,0,4.229-0.32,8.79-3.25c1.631-0.98,2.28-3.58,4.561-10.74
				c0.979-3.91,2.279-8.141,3.58-11.07l4.56-2.6l3.25-51.76c0.979-29.3-2.601-81.71-34.5-105.15
				c-0.979-0.98-23.771-19.86-63.479-20.84l-4.23,0.33c-39.391,1.3-62.18,20.18-63.16,20.83c-32.22,23.77-35.48,76.18-34.5,105.8
				l2.28,49.81l4.88,2.93h-0.33c0,0.32,0.98,4.561,3.91,11.07c1.63,6.83,2.6,9.439,3.91,10.41c0.32,0.33,0.65,0.33,0.97,0.65
				c2.931,5.539,6.84,11.72,11.399,17.58l2.931,9.77c1.62,11.07,3.25,22.46,3.58,25.391c0.319,6.51-0.979,23.109-20.841,35.479
				c-11.719,7.17-22.459,12.05-27.989,14.329c-1.63,0.32-8.47,2.601-9.12,2.601c-68.36,15.63-88.22,51.11-92.45,61.851
				c0,0,144.87,10.64,216.15,10.68S506.199,445,506.199,445C502.619,440.44,496.109,431.98,485.689,422.54z M208.339,263.03
				c0.65,2.6,1.63,6.18,2.6,10.74c-2.27-4.561-3.9-8.79-5.199-12.37L208.339,263.03z M315.439,350.92
				c-4.23,1.31-17.9,1.629-22.79,1.629h-5.21c-5.199,0-19.529-0.319-23.76-1.629c-4.561-1.301-26.37-19.53-31.58-25.061
				c-1.62-1.63-4.551-10.74-8.13-22.14c10.409,10.09,24.739,18.229,43.94,19.53c1.629,3.26,4.56,5.539,8.139,5.539h26.691
				c5.209,0,9.119-3.91,9.119-9.119c0-5.211-3.91-9.11-9.119-9.11h-26.691c-3.899,0-6.829,2.28-8.459,5.53
				c-19.53-1.631-35.49-11.07-48.18-27.99c-1.951-7.49-4.23-15.301-6.19-22.471c3.26,0.98,7.489,0.98,12.37,0.98
				c10.75,0,24.09-3.25,33.209-6.18c13.021-4.24,27.341-6.189,27.341-6.189h4.56c0.33,0,14.65,1.949,27.67,6.189
				c9.11,2.93,22.461,6.18,33.2,6.18c4.56,0,8.47,0,11.72-0.98c-6.51,27.67-14.319,56.65-17.25,59.58
				C341.809,331.07,320.319,349.299,315.439,350.92z"/>
			<g>
				<g>
					<polygon fill="#D9521B" points="287.119,277.68 266.939,270.52 266.939,263.03 271.49,263.03 271.49,266.94 287.769,273.12 
						291.349,273.12 307.628,266.94 307.628,262.7 312.509,262.7 312.509,270.19 292,277.68 					"/>
				</g>
				<g>
					<polygon fill="#D9521B" points="265.309,310.23 263.349,306 281.259,296.89 289.719,301.77 290.369,301.12 297.859,296.89 
						316.089,305.67 313.809,309.911 298.189,302.09 292.979,305.02 289.719,307.299 281.259,302.42 					"/>
				</g>
			</g>
		</g>
		<g>
			<g>
				<path fill="#F1E5D3" d="M373.708,265.959c-0.979,3.25-1.949,7.16-2.6,8.141c-3.26,1.949-3.26,1.949-4.561,1.949
					c1.301-5.529,2.281-10.09,3.25-13.02l5.541-3.26C375.009,262.049,374.359,264.01,373.708,265.959z"/>
			</g>
			<g>
				<path fill="#F5F4D2" d="M371.109,124.03c8.131,15.95,14.65,40.36,13.67,78.13l-3.26,49.15l-10.41,6.19V124.03z"/>
			</g>
			<g>
				<path fill="#F5F4D2" d="M208.019,124.68v132.49l-11.07-6.84l-1.959-47.521C193.369,165.37,199.878,140.63,208.019,124.68z"/>
			</g>
			<g>
				<path fill="#F1E5D3" d="M208.99,263.03l-5.531-3.26c0.65,1.96,1.301,3.91,1.631,6.189c0.97,3.25,1.949,7.16,2.6,8.141
					c3.25,1.949,3.25,1.949,4.561,1.949C210.619,270.52,209.639,265.959,208.99,263.03z"/>
			</g>
		</g>
	</g>
	<g>
		<g>
			<g>
				<rect x="227.219" y="222.34" fill="#F5F4D2" width="37.11" height="9.44"/>
			</g>
			<g>
				<path fill-rule="evenodd" clip-rule="evenodd" d="M266.279,234.06h-41.66v-15.33h41.66V234.06z M229.5,229.5h32.229v-5.88H229.5
					V229.5z"/>
			</g>
			<g>
				<rect x="314.789" y="222.34" fill="#F5F4D2" width="37.11" height="9.44"/>
			</g>
			<g>
				<path fill-rule="evenodd" clip-rule="evenodd" d="M354.179,234.06h-41.67v-15.33h41.67V234.06z M317.069,229.5h32.229v-5.88
					h-32.229V229.5z"/>
			</g>
		</g>
		<g>
			<g>
				<g>
					<polygon fill="#EDB749" points="269.869,169.6 241.539,145.51 269.869,121.42 280.279,132.49 264.66,145.51 280.279,158.53 
											"/>
					<polygon fill="#EDB749" points="312.509,169.6 302.089,158.53 317.719,145.51 302.089,132.49 312.509,121.42 340.83,145.51 
											"/>
				</g>
				<g>
					<polygon fill="#F5F4D2" points="256.849,145.51 273.119,132.17 269.869,128.58 250.009,145.51 269.869,162.44 273.119,158.86 
											"/>
					<polygon fill="#F5F4D2" points="312.509,128.26 309.259,131.84 325.208,145.19 309.259,158.53 312.509,162.12 332.369,145.19 
											"/>
				</g>
			</g>
			<path fill="#EDB749" d="M291,156c-6,0-11-5.08-11-11c0-6.09,5-11,11-11s11,4.91,11,11C302,150.92,297,156,291,156z"/>
			<path fill="#F5F4D2" d="M290.899,139.08c-3.33,0-5.819,2.65-5.819,5.92s2.489,5.92,5.819,5.92c3.32,0,6.021-2.65,6.021-5.92
				S294.219,139.08,290.899,139.08z"/>
		</g>
	</g>
</g>
<path fill-rule="evenodd" clip-rule="evenodd" fill="#D9521B" stroke="#D9521B" stroke-width="10" stroke-linecap="round" stroke-linejoin="round" stroke-miterlimit="10" d="
	M107.429,429.081c-5.21,0-9.12,4.229-9.12,9.439s3.91,9.439,9.12,9.439c5.2,0,9.44-4.229,9.44-9.439
	S112.629,429.081,107.429,429.081z M107.429,460c-11.72,0-21.49-9.76-21.49-21.16c0-11.711,9.77-21.15,21.49-21.15
	c11.72,0,21.48,9.439,21.48,21.15C128.909,450.241,119.149,460,107.429,460z M153.329,459.35h-12.37v-11.721h12.37
	c5.2,0,9.11-3.899,9.11-8.789c0-5.2-4.23-8.78-9.11-8.78h-12.37v-11.72h12.37c11.709,0,21.81,8.789,21.81,20.5
	C174.809,450.241,165.039,459.35,153.329,459.35z M211.599,459.35l-9.439-20.51l-9.44,20.51h-13.351l20.18-42.32h5.541l20.18,42.32
	H211.599z M265.309,459.35v-41.01h12.37v29.619h20.51v11.721L265.309,459.35z M305.349,429.73v-11.72h32.88v11.72H305.349z
	 M305.349,444.379v-11.719h32.88v11.719H305.349z M305.349,459.35v-11.721h32.88v11.721H305.349z M376.969,459.35l-9.44-20.51
	l-9.439,20.51h-13.35l20.18-42.32h5.539l20.181,42.32H376.969z M467.789,460c-10.42,0-19.209-7.48-19.209-20.181v-21.81h12.369
	v21.81c0,5.21,2.61,8.14,6.84,8.14c4.23,0,6.84-2.93,6.84-8.14v-21.81H487v21.81C487,452.19,478.208,460,467.789,460z
	 M500.019,429.73v-11.72h32.88v11.72H500.019z M500.019,444.379v-11.719h32.88v11.719H500.019z M500.019,459.35v-11.721h32.88
	v11.721H500.019z M44.599,438.52c0-11.721,9.76-20.51,21.81-20.51h12.37v11.72h-12.37c-5.21,0-9.12,3.58-9.12,8.79
	s4.24,8.79,9.12,8.79h12.37v11.72h-12.37C54.359,459.35,44.599,450.241,44.599,438.52z M411.798,431.36v11.391h11.721
	c0,0-1.63,3.91-5.859,4.229c-3.91,0.33-6.19-1.3-8.141-2.601c-1.63-1.299-2.6-3.26-2.6-7.489c0-3.91,2.27-5.86,2.27-5.86
	c2.609-2.279,5.21-3.25,11.721-3.25v-12.05c-15.951,0-25.711,9.771-25.711,21.49s9.76,21.479,21.811,21.479
	c4.55,0,9.109-1.63,13.02-4.229v4.229h12.37v-27.67h-4.229L411.798,431.36z"/>
<path fill-rule="evenodd" clip-rule="evenodd" fill="#F5F4D2" stroke="#D9521B" stroke-width="5" stroke-linecap="round" stroke-linejoin="round" stroke-miterlimit="10" d="
	M107.429,429.081c-5.21,0-9.12,4.229-9.12,9.439s3.91,9.439,9.12,9.439c5.2,0,9.44-4.229,9.44-9.439
	S112.629,429.081,107.429,429.081z M107.429,460c-11.72,0-21.49-9.76-21.49-21.16c0-11.711,9.77-21.15,21.49-21.15
	c11.72,0,21.48,9.439,21.48,21.15C128.909,450.241,119.149,460,107.429,460z M153.329,459.35h-12.37v-11.721h12.37
	c5.2,0,9.11-3.899,9.11-8.789c0-5.2-4.23-8.78-9.11-8.78h-12.37v-11.72h12.37c11.709,0,21.81,8.789,21.81,20.5
	C174.809,450.241,165.039,459.35,153.329,459.35z M211.599,459.35l-9.439-20.51l-9.44,20.51h-13.351l20.18-42.32h5.541l20.18,42.32
	H211.599z M265.309,459.35v-41.01h12.37v29.619h20.51v11.721L265.309,459.35z M305.349,429.73v-11.72h32.88v11.72H305.349z
	 M305.349,444.379v-11.719h32.88v11.719H305.349z M305.349,459.35v-11.721h32.88v11.721H305.349z M376.969,459.35l-9.44-20.51
	l-9.439,20.51h-13.35l20.18-42.32h5.539l20.181,42.32H376.969z M467.789,460c-10.42,0-19.209-7.48-19.209-20.181v-21.81h12.369
	v21.81c0,5.21,2.61,8.14,6.84,8.14c4.23,0,6.84-2.93,6.84-8.14v-21.81H487v21.81C487,452.19,478.208,460,467.789,460z
	 M500.019,429.73v-11.72h32.88v11.72H500.019z M500.019,444.379v-11.719h32.88v11.719H500.019z M500.019,459.35v-11.721h32.88
	v11.721H500.019z M44.599,438.52c0-11.721,9.76-20.51,21.81-20.51h12.37v11.72h-12.37c-5.21,0-9.12,3.58-9.12,8.79
	s4.24,8.79,9.12,8.79h12.37v11.72h-12.37C54.359,459.35,44.599,450.241,44.599,438.52z M411.798,431.36v11.391h11.721
	c0,0-1.63,3.91-5.859,4.229c-3.91,0.33-6.19-1.3-8.141-2.601c-1.63-1.299-2.6-3.26-2.6-7.489c0-3.91,2.27-5.86,2.27-5.86
	c2.609-2.279,5.21-3.25,11.721-3.25v-12.05c-15.951,0-25.711,9.771-25.711,21.49s9.76,21.479,21.811,21.479
	c4.55,0,9.109-1.63,13.02-4.229v4.229h12.37v-27.67h-4.229L411.798,431.36z"/>
</svg>
