<?xml version="1.0" encoding="utf-8"?>
<!-- Generator: Adobe Illustrator 16.0.0, SVG Export Plug-In . SVG Version: 6.00 Build 0)  -->
<!DOCTYPE svg PUBLIC "-//W3C//DTD SVG 1.1//EN" "http://www.w3.org/Graphics/SVG/1.1/DTD/svg11.dtd">
<svg version="1.1" id="Calque_1" xmlns="http://www.w3.org/2000/svg" xmlns:xlink="http://www.w3.org/1999/xlink" x="0px" y="0px"
	 width="200px" height="70px" viewBox="0 0 200 70" enable-background="new 0 0 200 70" xml:space="preserve">
<path fill-rule="evenodd" clip-rule="evenodd" fill="#DA531C" d="M81.52,3.76c-6.69,0-12.23,5.65-12.23,12.48
	c0,6.82,5.54,12.47,12.23,12.47s12.45-5.65,12.45-12.47C93.97,9.41,88.21,3.76,81.52,3.76z"/>
<g>
	<path fill-rule="evenodd" clip-rule="evenodd" d="M81.52,32c-8.31,0-15.23-7.06-15.23-15.29c0-8.47,6.92-15.3,15.23-15.3
		c8.3,0,15.22,6.83,15.22,15.3C96.74,24.94,89.82,32,81.52,32z M81.52,9.65c-3.69,0-6.46,3.06-6.46,6.82c0,3.77,2.77,6.82,6.46,6.82
		s6.69-3.05,6.69-6.82C88.21,12.71,85.21,9.65,81.52,9.65z"/>
	<path fill-rule="evenodd" clip-rule="evenodd" d="M37,16.47C37,8,43.92,1.65,52.45,1.65h8.77v8.47h-8.77
		c-3.69,0-6.45,2.59-6.45,6.35c0,3.77,2.99,6.35,6.45,6.35h8.77v8.47h-8.77C43.92,31.53,37,24.94,37,16.47z"/>
	<polygon fill-rule="evenodd" clip-rule="evenodd" points="155.33,31.53 148.64,16.71 141.95,31.53 132.5,31.53 146.8,0.94 
		150.72,0.94 165.02,31.53 	"/>
	<path fill-rule="evenodd" clip-rule="evenodd" d="M114.04,31.53h-8.76v-8.47h8.76c3.69,0,6.46-2.82,6.46-6.35
		c0-3.77-3-6.36-6.46-6.36h-8.76V1.88h8.76c8.31,0,15.46,6.36,15.46,14.83C129.27,24.94,122.35,31.53,114.04,31.53z"/>
	<path fill-rule="evenodd" clip-rule="evenodd" d="M111.19,48.29v8.24h8.31c0,0-1.16,2.82-4.16,3.06c-2.76,0.23-4.38-0.94-5.76-1.88
		c-1.16-0.95-1.85-2.36-1.85-5.42c0-2.82,1.62-4.23,1.62-4.23c1.84-1.65,3.69-2.35,8.3-2.35V37c-11.3,0-18.22,7.06-18.22,15.53
		c0,8.47,6.92,15.53,15.45,15.53c3.23,0,6.46-1.18,9.23-3.06v3.06h8.76v-20h-2.99L111.19,48.29z"/>
	<rect x="173.7" y="60.06" fill-rule="evenodd" clip-rule="evenodd" width="23.3" height="8.47"/>
	<rect x="173.7" y="49.24" fill-rule="evenodd" clip-rule="evenodd" width="23.3" height="8.47"/>
	<rect x="173.7" y="38.65" fill-rule="evenodd" clip-rule="evenodd" width="23.3" height="8.47"/>
	<path fill-rule="evenodd" clip-rule="evenodd" d="M152.99,69c-7.38,0-13.61-5.41-13.61-14.59V38.65h8.77v15.76
		c0,3.77,1.84,5.88,4.84,5.88s4.85-2.11,4.85-5.88V38.65h8.76v15.76C166.6,63.35,160.37,69,152.99,69z"/>
	<polygon fill-rule="evenodd" clip-rule="evenodd" points="86.51,68.53 79.82,53.71 73.13,68.53 63.67,68.53 77.98,37.94 
		81.9,37.94 96.2,68.53 	"/>
	<rect x="35.76" y="60.06" fill-rule="evenodd" clip-rule="evenodd" width="23.3" height="8.47"/>
	<rect x="35.76" y="49.24" fill-rule="evenodd" clip-rule="evenodd" width="23.3" height="8.47"/>
	<rect x="35.76" y="38.65" fill-rule="evenodd" clip-rule="evenodd" width="23.3" height="8.47"/>
	<polygon fill-rule="evenodd" clip-rule="evenodd" points="7.39,68.53 7.39,38.88 16.16,38.88 16.16,60.29 30.69,60.29 30.69,68.76 
			"/>
</g>
<g>
	<path fill="#3B81B9" d="M39.77,16.47c0,6.82,5.76,12,12.45,12h5.77v-2.82h-5.77c-5.3,0-9.45-3.77-9.45-9.41
		c0-5.65,4.15-9.42,9.45-9.42h5.77V4h-5.77C45.53,4.47,39.77,9.41,39.77,16.47z"/>
	<path fill="#3B81B9" d="M114.04,4.47h-5.76v2.82h5.76c5.31,0,9.46,3.77,9.46,9.42c0,5.41-4.15,9.41-9.46,9.41h-5.76v2.82h5.76
		c6.69,0,12.46-5.18,12.46-12C126.27,9.41,120.73,4.47,114.04,4.47z"/>
	<path fill-rule="evenodd" clip-rule="evenodd" fill="#3B81B9" d="M81.52,26.35c-5.31,0-9.46-4.47-9.46-9.64
		c0-5.42,4.15-9.65,9.46-9.65c5.3,0,9.46,4.23,9.46,9.65C91.21,21.88,86.82,26.35,81.52,26.35z M81.52,3.76
		c-6.69,0-12.23,5.65-12.23,12.48c0,6.82,5.54,12.47,12.23,12.47s12.45-5.65,12.45-12.47C93.97,9.41,88.21,3.76,81.52,3.76z"/>
	<polygon fill="#3B81B9" points="148.87,3.76 148.41,3.76 136.88,28.47 139.88,28.47 148.64,9.41 157.18,28.47 160.18,28.47 	"/>
	<rect x="176.7" y="41.71" fill="#3B81B9" width="17.53" height="2.82"/>
	<rect x="176.7" y="52.29" fill="#3B81B9" width="17.53" height="2.83"/>
	<rect x="176.7" y="62.88" fill="#3B81B9" width="17.53" height="2.83"/>
	<rect x="38.76" y="41.47" fill="#3B81B9" width="17.53" height="2.82"/>
	<rect x="38.76" y="52.06" fill="#3B81B9" width="17.53" height="2.82"/>
	<rect x="38.76" y="62.88" fill="#3B81B9" width="17.53" height="2.83"/>
	<polygon fill="#3B81B9" points="79.82,40.76 79.36,40.76 67.83,65.47 71.06,65.47 79.82,46.41 88.36,65.47 91.35,65.47 	"/>
	<polygon fill="#3B81B9" points="27.69,63.12 12.93,63.12 12.93,41.71 10.16,41.71 10.16,65.94 27.69,65.94 	"/>
	<path fill="#3B81B9" d="M163.12,41.47h-2.76v12.94c0,5.65-3.46,8.94-7.85,8.94c-4.38,0-7.84-3.29-7.84-8.94V41.47h-2.77v12.94
		c0,7.06,4.85,11.53,10.85,11.53c5.99,0,10.84-4.47,10.84-11.53L163.12,41.47z"/>
	<path fill="#3B81B9" d="M126.42,65.23v-8.7l-0.23,0.23l-1.16,1.89c-0.69,0.94-1.15,1.88-1.61,2.59c-1.85,2.82-5.54,3.76-9,3.76
		c-6.92,0-12.45-5.88-12.45-12.71c0-6.58,5.07-12,12.22-12.7v2.82c-4.84,0.47-9.23,3.3-9.46,8.47c0,0.71,0,1.65,0.23,3.3
		c1.16,6.11,5.31,8.23,9.46,8.23s7.84-2.82,9.69-8.47h-6.92h-3v-2.82h14.99v14.11H126.42z"/>
</g>
</svg>
