<?xml version="1.0" encoding="utf-8"?>
<!-- Generator: Adobe Illustrator 16.0.0, SVG Export Plug-In . SVG Version: 6.00 Build 0)  -->
<!DOCTYPE svg PUBLIC "-//W3C//DTD SVG 1.1//EN" "http://www.w3.org/Graphics/SVG/1.1/DTD/svg11.dtd">
<svg version="1.1" id="Calque_1" xmlns="http://www.w3.org/2000/svg" xmlns:xlink="http://www.w3.org/1999/xlink" x="0px" y="0px"
	 width="200px" height="70px" viewBox="0 0 200 70" enable-background="new 0 0 200 70" xml:space="preserve">
<path fill="#3B81B9" d="M51.52,2.82c-6.69,0-12.23,5.65-12.23,12.48c0,6.82,5.54,12.47,12.23,12.47s12.45-5.649,12.45-12.47
	C63.97,8.47,58.21,2.82,51.52,2.82z"/>
<path d="M51.52,31.06c-8.31,0-15.23-7.061-15.23-15.29c0-8.47,6.92-15.3,15.23-15.3c8.3,0,15.22,6.83,15.22,15.3
	C66.74,24,59.82,31.06,51.52,31.06z M51.52,8.71c-3.69,0-6.46,3.06-6.46,6.82c0,3.771,2.77,6.82,6.46,6.82s6.69-3.05,6.69-6.82
	C58.21,11.77,55.21,8.71,51.52,8.71z"/>
<path d="M7,15.53C7,7.06,13.92,0.71,22.45,0.71h8.77v8.47h-8.77c-3.69,0-6.45,2.59-6.45,6.35c0,3.771,2.99,6.351,6.45,6.351h8.77
	v8.47h-8.77C13.92,30.59,7,24,7,15.53z"/>
<polygon points="125.33,30.59 118.641,15.77 111.95,30.59 102.5,30.59 116.8,0 120.721,0 135.02,30.59 "/>
<path d="M84.04,30.59h-8.761v-8.47h8.761c3.69,0,6.46-2.82,6.46-6.351c0-3.77-3-6.36-6.46-6.36h-8.761V0.94h8.761
	c8.31,0,15.46,6.36,15.46,14.83C99.27,24,92.35,30.59,84.04,30.59z"/>
<path d="M111.189,48.29v8.24h8.311c0,0-1.16,2.819-4.16,3.06c-2.76,0.23-4.38-0.939-5.76-1.88c-1.16-0.95-1.85-2.36-1.85-5.42
	c0-2.82,1.619-4.229,1.619-4.229c1.84-1.65,3.69-2.351,8.301-2.351V37c-11.301,0-18.22,7.061-18.22,15.53s6.919,15.53,15.45,15.53
	c3.229,0,6.46-1.181,9.229-3.061v3.061h8.761v-20h-2.99L111.189,48.29z"/>
<rect x="173.7" y="60.061" width="23.3" height="8.47"/>
<rect x="173.7" y="49.24" width="23.3" height="8.47"/>
<rect x="173.7" y="38.65" width="23.3" height="8.47"/>
<path d="M152.99,69c-7.381,0-13.61-5.41-13.61-14.59V38.65h8.771v15.76c0,3.77,1.84,5.88,4.84,5.88s4.85-2.11,4.85-5.88V38.65h8.76
	v15.76C166.6,63.35,160.37,69,152.99,69z"/>
<polygon points="86.51,68.53 79.82,53.71 73.13,68.53 63.67,68.53 77.98,37.939 81.9,37.939 96.2,68.53 "/>
<rect x="35.76" y="60.061" width="23.3" height="8.47"/>
<rect x="35.76" y="49.24" width="23.3" height="8.47"/>
<rect x="35.76" y="38.65" width="23.3" height="8.47"/>
<polygon points="7.39,68.53 7.39,38.88 16.16,38.88 16.16,60.29 30.69,60.29 30.69,68.76 "/>
<path fill="#F2E6D4" d="M9.77,15.53c0,6.82,5.76,12,12.45,12h5.77V24.71h-5.77c-5.3,0-9.45-3.771-9.45-9.41
	c0-5.65,4.15-9.42,9.45-9.42h5.77V3.06h-5.77C15.53,3.53,9.77,8.47,9.77,15.53z"/>
<path fill="#F2E6D4" d="M84.04,3.53h-5.761v2.82h5.761c5.31,0,9.46,3.77,9.46,9.42c0,5.41-4.15,9.41-9.46,9.41h-5.761V28h5.761
	c6.69,0,12.46-5.18,12.46-12C96.27,8.47,90.73,3.53,84.04,3.53z"/>
<path fill="#F2E6D4" d="M51.52,25.41c-5.31,0-9.46-4.47-9.46-9.64c0-5.42,4.15-9.65,9.46-9.65c5.3,0,9.46,4.23,9.46,9.65
	C61.21,20.94,56.82,25.41,51.52,25.41z M51.52,2.82c-6.69,0-12.23,5.65-12.23,12.48c0,6.82,5.54,12.47,12.23,12.47
	s12.45-5.649,12.45-12.47C63.97,8.47,58.21,2.82,51.52,2.82z"/>
<polygon fill="#F2E6D4" points="118.87,2.82 118.41,2.82 106.88,27.53 109.88,27.53 118.641,8.47 127.18,27.53 130.18,27.53 "/>
<rect x="176.7" y="41.71" fill="#F2E6D4" width="17.53" height="2.82"/>
<rect x="176.7" y="52.29" fill="#F2E6D4" width="17.53" height="2.83"/>
<rect x="176.7" y="62.88" fill="#F2E6D4" width="17.53" height="2.83"/>
<rect x="38.76" y="41.47" fill="#F2E6D4" width="17.53" height="2.82"/>
<rect x="38.76" y="52.061" fill="#F2E6D4" width="17.53" height="2.819"/>
<rect x="38.76" y="62.88" fill="#F2E6D4" width="17.53" height="2.83"/>
<polygon fill="#F2E6D4" points="79.82,40.76 79.36,40.76 67.83,65.47 71.06,65.47 79.82,46.41 88.36,65.47 91.35,65.47 "/>
<polygon fill="#F2E6D4" points="27.69,63.12 12.93,63.12 12.93,41.71 10.16,41.71 10.16,65.939 27.69,65.939 "/>
<path fill="#F2E6D4" d="M163.12,41.47h-2.761v12.94c0,5.65-3.459,8.939-7.85,8.939c-4.38,0-7.84-3.289-7.84-8.939V41.47h-2.77v12.94
	c0,7.06,4.85,11.529,10.85,11.529c5.99,0,10.84-4.47,10.84-11.529L163.12,41.47z"/>
<path fill="#F2E6D4" d="M126.42,65.23v-8.7l-0.23,0.229l-1.16,1.891c-0.689,0.939-1.149,1.88-1.609,2.59
	c-1.85,2.82-5.54,3.76-9,3.76c-6.92,0-12.449-5.88-12.449-12.71c0-6.58,5.069-12,12.219-12.7v2.82c-4.84,0.47-9.229,3.3-9.459,8.47
	c0,0.71,0,1.65,0.229,3.3c1.16,6.11,5.31,8.23,9.46,8.23s7.84-2.82,9.689-8.471h-6.92h-3V51.12h14.99v14.11H126.42z"/>
</svg>
