<?xml version="1.0" encoding="utf-8"?>
<!-- Generator: Adobe Illustrator 16.0.0, SVG Export Plug-In . SVG Version: 6.00 Build 0)  -->
<!DOCTYPE svg PUBLIC "-//W3C//DTD SVG 1.1//EN" "http://www.w3.org/Graphics/SVG/1.1/DTD/svg11.dtd">
<svg version="1.1" id="Calque_1" xmlns="http://www.w3.org/2000/svg" xmlns:xlink="http://www.w3.org/1999/xlink" x="0px" y="0px"
	 width="521.278px" height="371.43px" viewBox="0 0 521.278 371.43" enable-background="new 0 0 521.278 371.43"
	 xml:space="preserve">
<g>
	<polygon fill="#FFFFFF" points="478.272,184.895 470.869,155.006 434.933,147.023 441.117,133.622 462.209,111.131 
		391.311,125.442 369.599,133.371 356.14,160.647 376.591,170.002 	"/>
	<path d="M486.634,186.682c-4.034-9.041-10.063-31.028-12.506-34.552c-2.44-3.523-78.356-13.878-91.431-18.884
		c9.809-5.68,63.562-14.262,70.806-15.431c-13.416,8.467-19.668,16.116-22.175,27.963c2.36,3.875,7.436,1.07,7.436,1.07
		c2.519-10.382,17.432-24.489,33.201-32.622c6.278-3.236,4.257-8.492-3.85-6.797c-8.108,1.698-75.241,11.065-101.937,22.916
		c-6.171,7.299-18.591,34.333-18.591,34.333l49.451,6.133c0,0-22.319-4.679-29.946-7.998c-7.622-3.313-6.446-8.157-4.493-13.183
		c1.949-5.027,6.48-11.619,6.48-11.619c3.744,4.205,64.003,14.682,81.399,16.444c10.372,1.053,19.198,3.928,19.198,3.928
		c4.035,9.041,4.79,18.021,4.98,20.265c0.188,2.243-13.879,4.331-13.879,4.331L486.634,186.682z"/>
</g>
<g>
	<path d="M516.073,267.391c1.624-3.325-26.969-89.153-37.215-116.146c-1.771-4.669-365.019,24.517-384.59,24.517
		c-9.453,0-38.996,113.227-46.081,137.153c-7.094,23.928,11.812,16.928,52.579,11.669
		C141.523,319.336,508.391,283.15,516.073,267.391z"/>
</g>
<g>
	<path fill="#FFFFFF" d="M472.309,160.655c-24.148-2.41-350.149,27.77-379.729,28.38c-15.09,36.82-27.17,99.61-35.62,131
		c74.26-9.66,405.089-40.45,446.74-56.75C498.27,223.445,472.309,160.655,472.309,160.655z"/>
</g>
</svg>
