<?xml version="1.0" encoding="utf-8"?>
<!-- Generator: Adobe Illustrator 16.0.0, SVG Export Plug-In . SVG Version: 6.00 Build 0)  -->
<!DOCTYPE svg PUBLIC "-//W3C//DTD SVG 1.1//EN" "http://www.w3.org/Graphics/SVG/1.1/DTD/svg11.dtd">
<svg version="1.1" id="Calque_1" xmlns="http://www.w3.org/2000/svg" xmlns:xlink="http://www.w3.org/1999/xlink" x="0px" y="0px"
	 width="15px" height="263.33px" viewBox="0 0 15 263.33" enable-background="new 0 0 15 263.33" xml:space="preserve">
<g>
	<circle cx="7.46" cy="1.7" r="1.7"/>
	<path d="M7.46,18.55c1.05,0,1.9-0.86,1.9-1.91c0-1.05-0.85-1.91-1.9-1.91s-1.9,0.86-1.9,1.91C5.56,17.69,6.41,18.55,7.46,18.55z"/>
	<path d="M7.46,33.7c1.17,0,2.11-0.95,2.11-2.12c0-1.16-0.94-2.11-2.11-2.11s-2.11,0.95-2.11,2.11C5.35,32.75,6.29,33.7,7.46,33.7z"
		/>
	<path d="M7.46,48.89c1.31,0,2.36-1.06,2.36-2.36c0-1.31-1.05-2.37-2.36-2.37c-1.3,0-2.36,1.06-2.36,2.37
		C5.1,47.83,6.16,48.89,7.46,48.89z"/>
	<path d="M7.46,64.04c1.42,0,2.57-1.16,2.57-2.57c0-1.42-1.15-2.57-2.57-2.57s-2.57,1.15-2.57,2.57
		C4.89,62.88,6.04,64.04,7.46,64.04z"/>
	<path d="M7.46,79.19c1.53,0,2.78-1.25,2.78-2.78c0-1.53-1.25-2.78-2.78-2.78c-1.53,0-2.78,1.25-2.78,2.78
		C4.68,77.94,5.93,79.19,7.46,79.19z"/>
	<path d="M7.46,94.33c1.65,0,2.99-1.33,2.99-2.98s-1.34-2.98-2.99-2.98s-2.98,1.33-2.98,2.98S5.81,94.33,7.46,94.33z"/>
	<path d="M7.46,109.49c1.76,0,3.19-1.43,3.19-3.19c0-1.77-1.43-3.2-3.19-3.2c-1.76,0-3.19,1.43-3.19,3.2
		C4.27,108.06,5.7,109.49,7.46,109.49z"/>
	<path d="M7.46,124.63c1.88,0,3.4-1.52,3.4-3.39c0-1.88-1.52-3.4-3.4-3.4c-1.87,0-3.4,1.52-3.4,3.4
		C4.06,123.11,5.59,124.63,7.46,124.63z"/>
	<path d="M7.46,139.78c1.99,0,3.6-1.61,3.6-3.6c0-1.99-1.61-3.61-3.6-3.61c-1.99,0-3.6,1.62-3.6,3.61
		C3.86,138.17,5.47,139.78,7.46,139.78z"/>
	<path d="M7.46,154.98c2.13,0,3.85-1.73,3.85-3.86s-1.72-3.85-3.85-3.85s-3.85,1.72-3.85,3.85S5.33,154.98,7.46,154.98z"/>
	<path d="M7.46,170.12c2.24,0,4.06-1.81,4.06-4.05c0-2.25-1.82-4.07-4.06-4.07c-2.24,0-4.06,1.82-4.06,4.07
		C3.4,168.31,5.22,170.12,7.46,170.12z"/>
	<path d="M7.46,185.27c2.36,0,4.27-1.91,4.27-4.26c0-2.36-1.91-4.27-4.27-4.27s-4.27,1.91-4.27,4.27
		C3.19,183.36,5.1,185.27,7.46,185.27z"/>
	<path d="M7.46,200.42c2.47,0,4.47-2,4.47-4.47c0-2.47-2-4.48-4.47-4.48c-2.47,0-4.48,2.01-4.48,4.48
		C2.98,198.42,4.99,200.42,7.46,200.42z"/>
	<path d="M7.46,215.57c2.58,0,4.68-2.09,4.68-4.68c0-2.58-2.1-4.68-4.68-4.68s-4.68,2.1-4.68,4.68
		C2.78,213.48,4.88,215.57,7.46,215.57z"/>
	<circle cx="7.46" cy="225.83" r="4.89"/>
	<path d="M7.46,245.87c2.82,0,5.1-2.28,5.1-5.09c0-2.82-2.28-5.1-5.1-5.1s-5.1,2.28-5.1,5.1C2.36,243.59,4.64,245.87,7.46,245.87z"
		/>
	<path d="M7.46,261.06c2.95,0,5.35-2.39,5.35-5.34c0-2.95-2.4-5.35-5.35-5.35s-5.35,2.4-5.35,5.35
		C2.11,258.67,4.51,261.06,7.46,261.06z"/>
</g>
</svg>
